{"glyphs":{"0":{"ha":758,"x_min":-15,"x_max":722,"o":"m 237 -39 q 57 44 130 -39 q -15 258 -15 128 q 34 458 -15 351 q 146 632 78 557 q 481 821 315 821 q 654 746 586 821 q 722 554 722 671 q 677 346 722 455 q 395 10 583 119 q 237 -39 309 -39 m 304 736 q 178 559 226 661 q 125 347 125 450 q 195 137 125 220 q 395 49 270 49 l 400 50 l 408 50 q 534 237 488 129 q 579 460 579 346 q 507 654 579 575 q 319 736 433 736 l 304 736 z "},"1":{"ha":758,"x_min":130,"x_max":606,"o":"m 130 -50 l 322 461 q 375 608 336 500 q 424 754 413 715 q 334 718 385 734 q 244 699 290 705 l 250 738 q 606 888 446 779 l 296 1 q 218 -20 258 -5 l 130 -50 z "},"2":{"ha":758,"x_min":-103,"x_max":682,"o":"m 567 140 l 585 138 l 440 -35 l 43 13 l -98 -32 l -103 -20 l -85 1 l 26 136 l 81 131 q 395 360 275 227 q 515 603 515 494 q 472 716 515 672 q 357 761 428 761 q 293 749 311 761 q 258 694 271 736 q 214 581 243 642 q 143 494 173 494 q 131 511 135 494 q 125 553 125 526 q 248 766 125 688 q 496 835 353 835 q 629 791 579 835 q 682 664 682 746 q 546 410 682 547 q 149 125 409 273 l 389 102 l 422 102 q 501 111 462 102 q 567 140 540 121 z "},"3":{"ha":758,"x_min":-14,"x_max":682,"o":"m 292 478 l 309 478 q 342 475 328 478 l 382 468 q 528 637 528 538 q 489 717 528 686 q 388 747 451 747 q 331 741 370 747 q 314 734 321 739 q 261 593 296 652 q 212 534 227 534 q 199 545 204 534 q 195 576 195 555 q 298 765 195 690 q 511 833 393 833 q 627 801 579 833 q 682 699 682 763 q 589 540 682 610 q 417 454 521 488 q 520 386 483 431 q 557 281 557 341 q 445 74 557 178 q 246 -41 349 -15 q 178 -49 214 -49 q 62 -16 128 -49 q -14 66 -14 22 q -7 79 -14 73 q 14 83 0 83 q 129 56 47 83 q 257 28 211 28 q 385 68 330 28 q 445 182 445 112 q 356 313 445 255 q 128 379 253 379 l 292 478 z "},"4":{"ha":758,"x_min":-46,"x_max":693,"o":"m 199 -54 l 332 269 l 102 269 l 48 264 l -46 260 l 366 632 q 457 720 425 685 l 506 771 q 531 803 522 793 l 614 820 q 663 832 629 823 q 693 843 684 840 l 503 367 l 538 366 l 592 366 l 660 367 l 690 368 l 628 298 l 596 257 l 545 261 l 464 265 l 358 -26 q 273 -38 306 -31 l 199 -54 m 368 364 l 505 715 l 457 667 l 416 627 l 134 371 l 368 364 z "},"5":{"ha":758,"x_min":-26,"x_max":699,"o":"m 313 832 l 424 828 l 517 827 q 685 849 643 825 l 689 850 l 696 849 l 699 842 l 669 799 q 618 709 642 758 l 306 709 l 236 550 q 275 560 249 555 l 317 564 q 483 509 420 564 q 550 350 550 451 q 330 -7 550 151 q 249 -47 296 -31 q 160 -61 210 -61 q 50 -36 115 -61 q -26 32 -26 -6 q 7 50 -26 50 q 159 38 16 50 l 293 26 q 396 87 347 22 q 442 233 442 149 q 385 372 442 321 q 225 424 324 427 l 180 422 l 132 416 l 313 832 z "},"6":{"ha":758,"x_min":7,"x_max":684,"o":"m 196 454 q 155 342 176 414 q 142 258 142 300 q 203 117 142 176 q 343 57 269 52 l 363 58 l 380 67 q 521 311 521 154 q 473 459 521 404 q 349 514 426 514 q 196 454 276 514 m 570 844 l 684 807 q 231 509 406 730 l 239 515 q 478 633 393 633 q 606 568 556 633 q 653 428 653 508 q 639 340 653 387 q 602 257 623 290 q 485 109 540 163 q 367 18 433 57 q 265 -29 317 -11 q 185 -46 218 -46 q 60 18 113 -46 q 7 175 7 83 q 161 521 7 335 q 570 844 316 707 z "},"7":{"ha":758,"x_min":33,"x_max":779,"o":"m 271 831 l 425 819 l 603 814 q 779 833 702 814 q 161 -22 469 480 l 93 -35 l 33 -56 l 239 208 l 582 697 l 570 696 l 528 696 l 421 700 q 229 690 317 704 q 139 653 163 680 l 124 669 l 271 831 z "},"8":{"ha":758,"x_min":4,"x_max":703,"o":"m 229 375 q 117 203 117 281 q 178 119 117 147 q 289 98 226 98 q 473 168 411 98 q 277 349 455 249 l 229 375 m 479 422 q 570 519 543 477 q 597 599 597 560 q 546 679 597 646 q 420 711 494 711 q 239 643 306 711 q 285 547 239 592 q 357 495 302 530 q 479 422 412 459 m 204 391 q 178 425 184 414 q 146 514 146 467 q 303 770 146 628 q 494 848 390 848 q 635 806 575 848 q 703 682 703 760 q 503 407 703 566 q 570 300 570 355 q 364 3 570 154 q 289 -35 334 -20 q 208 -50 242 -50 q 71 -7 131 -50 q 4 115 4 41 q 204 391 4 232 z "},"9":{"ha":758,"x_min":60,"x_max":689,"o":"m 530 392 q 545 450 537 410 l 549 510 q 549 531 549 520 q 500 680 549 618 q 359 741 452 741 q 273 684 311 741 q 221 585 240 636 q 203 492 203 536 q 249 375 203 419 q 371 331 295 331 q 530 392 454 331 m 60 -41 q 354 144 231 40 q 519 354 475 247 q 264 201 357 201 q 126 263 178 201 q 77 408 77 321 q 128 585 77 499 q 285 746 186 680 q 357 786 311 763 q 440 818 401 807 q 506 829 478 829 q 635 766 581 829 q 689 610 689 702 q 525 248 689 454 q 236 -41 409 102 l 60 -41 z "}," ":{"ha":379,"x_min":0,"x_max":0,"o":""},"!":{"ha":489,"x_min":-29,"x_max":445,"o":"m 96 222 l 299 833 l 445 868 l 172 252 l 96 222 m -29 53 l 106 131 l 153 74 l 192 32 l 67 -42 q 39 -21 47 -28 q 14 3 22 -4 l -29 53 z "},"\"":{"ha":465,"x_min":58,"x_max":406,"o":"m 357 583 l 334 583 l 285 920 q 345 992 285 992 q 389 974 371 992 q 406 922 406 954 l 406 906 l 404 895 l 357 583 m 132 583 l 109 583 l 58 922 q 119 992 58 992 q 165 972 149 992 q 180 920 183 951 l 179 903 l 179 895 l 132 583 z "},"#":{"ha":1068,"x_min":60,"x_max":1008,"o":"m 477 587 l 410 399 l 602 399 l 667 587 l 477 587 m 515 989 l 621 989 l 511 681 l 699 681 l 808 989 l 914 989 l 804 681 l 1008 681 l 975 587 l 771 587 l 706 399 l 922 399 l 889 304 l 672 304 l 563 -3 l 457 -3 l 567 304 l 378 304 l 269 -3 l 164 -3 l 273 304 l 60 304 l 95 399 l 306 399 l 372 587 l 144 587 l 179 681 l 406 681 l 515 989 z "},"$":{"ha":758,"x_min":44,"x_max":659,"o":"m 280 144 l 289 143 l 338 139 q 431 160 387 135 q 467 212 467 180 q 437 262 467 234 q 353 319 425 274 l 280 144 m 361 485 l 435 661 l 413 665 l 391 667 q 294 648 336 670 q 257 593 257 627 q 361 485 257 543 m 521 875 l 559 884 l 596 893 l 535 763 q 596 738 568 755 q 627 718 606 732 q 659 689 642 706 l 571 522 l 550 531 l 560 555 l 563 572 q 521 629 563 601 q 489 648 506 640 l 411 458 q 521 383 490 418 q 554 315 554 351 q 489 168 554 242 q 358 67 433 102 q 333 56 343 60 q 252 42 302 42 l 237 42 l 191 -78 l 115 -102 l 179 49 q 44 140 99 77 l 122 307 l 143 298 q 134 277 135 286 l 132 250 q 159 203 132 229 q 227 163 186 178 l 304 347 l 298 351 q 162 492 162 435 q 215 621 162 553 q 319 717 258 675 q 393 757 362 746 q 468 770 430 770 l 479 770 l 521 875 z "},"%":{"ha":1081,"x_min":74,"x_max":947,"o":"m 690 414 q 617 311 648 377 q 594 252 600 274 q 587 192 587 224 q 634 63 587 112 q 753 14 681 14 l 758 14 q 830 123 802 58 q 859 250 859 189 q 812 366 859 317 q 700 414 766 414 l 690 414 m 648 -46 q 541 5 585 -46 q 497 134 497 56 q 597 358 497 248 q 800 469 698 469 q 906 426 864 469 q 947 310 947 382 q 921 186 947 249 q 842 64 894 123 q 746 -18 792 8 q 648 -46 697 -46 m 265 775 q 191 671 219 733 q 163 553 163 610 q 209 425 163 475 q 328 375 254 375 l 335 375 q 406 484 378 418 q 433 611 433 551 q 388 728 433 681 q 275 775 342 775 l 265 775 m 227 315 q 117 367 161 315 q 74 494 74 416 q 172 720 74 610 q 375 832 273 832 q 484 785 443 832 q 524 672 524 741 q 420 427 524 547 q 227 315 323 315 m 157 -45 l 806 824 l 856 824 l 204 -45 l 157 -45 z "},"&":{"ha":772,"x_min":-85,"x_max":694,"o":"m 225 436 q 143 357 170 387 q 90 292 115 328 q 49 188 49 233 q 114 121 49 121 q 179 143 144 121 q 249 212 214 166 l 232 321 q 227 378 230 335 q 225 436 225 395 m 318 553 q 416 663 386 620 q 448 743 448 708 q 435 779 448 764 q 401 792 422 791 l 385 787 l 367 779 q 322 625 335 728 q 318 553 318 593 m 694 -138 l 690 -159 q 586 -199 640 -183 q 511 -214 532 -214 q 362 -113 428 -214 q 256 178 297 -12 q -12 -42 85 -42 q -67 -12 -47 -42 q -85 52 -85 14 q 31 286 -85 151 q 225 474 95 361 l 225 489 q 246 631 225 560 q 314 773 267 699 q 413 892 361 848 q 506 934 463 934 q 553 916 534 934 q 571 864 571 897 q 428 627 571 784 q 321 517 376 569 l 321 468 q 327 407 321 452 l 339 315 l 367 357 l 389 400 l 446 395 l 511 392 l 581 395 l 689 401 l 659 372 q 566 292 590 307 l 497 279 l 428 275 l 389 277 l 345 279 q 643 -143 474 -143 l 688 -139 l 694 -138 z "},"'":{"ha":239,"x_min":56,"x_max":180,"o":"m 132 583 l 109 583 l 58 920 q 77 975 56 953 q 119 992 92 992 q 164 974 146 992 q 180 922 180 954 l 179 913 l 178 895 l 132 583 z "},"(":{"ha":392,"x_min":-32,"x_max":582,"o":"m -5 -310 q -31 -110 -28 -222 q -32 -64 -32 -53 q 500 1010 -32 595 l 582 1023 q 86 -10 86 608 q 95 -144 86 -67 q 114 -256 101 -199 l -5 -310 z "},")":{"ha":392,"x_min":-330,"x_max":285,"o":"m 258 1023 q 279 897 275 953 q 285 828 282 870 q 285 777 285 828 q -248 -298 285 121 l -330 -310 q 167 722 167 109 q 160 842 167 777 q 139 968 153 910 l 258 1023 z "},"*":{"ha":694,"x_min":201,"x_max":656,"o":"m 383 807 q 345 825 370 812 q 307 848 336 829 l 236 893 l 273 994 q 334 920 283 976 q 408 846 368 882 l 422 939 q 444 1014 427 970 l 552 1011 l 498 926 l 454 835 l 538 848 l 625 853 l 656 749 q 506 785 579 774 q 456 787 487 787 q 498 705 460 781 q 527 631 518 663 l 437 571 q 435 617 437 587 q 432 664 432 648 l 413 770 l 353 710 q 322 684 338 698 q 286 656 309 672 l 201 721 q 239 732 229 728 q 383 807 326 769 z "},"+":{"ha":1157,"x_min":172,"x_max":985,"o":"m 531 828 l 627 828 l 627 461 l 985 461 l 985 366 l 627 366 l 627 0 l 531 0 l 531 366 l 172 366 l 172 461 l 531 461 l 531 828 z "},",":{"ha":379,"x_min":-103,"x_max":118,"o":"m 86 130 q 111 75 106 96 q 115 60 113 66 q 118 39 117 49 q 35 -79 118 -16 q -95 -155 -23 -123 l -103 -135 q -21 -24 -21 -87 q -54 53 -21 14 l 86 130 z "},"-":{"ha":370,"x_min":-42,"x_max":289,"o":"m 155 279 l 96 285 l 54 286 q -33 274 5 288 l -42 282 l 93 385 l 153 379 l 204 378 q 239 380 226 377 q 281 391 260 382 l 289 382 l 155 279 z "},"‐":{"ha":370,"x_min":-42,"x_max":289,"o":"m 155 279 l 96 285 l 54 286 q -33 274 5 288 l -42 282 l 93 385 l 153 379 l 204 378 q 239 380 226 377 q 281 391 260 382 l 289 382 l 155 279 z "},".":{"ha":379,"x_min":-82,"x_max":139,"o":"m -82 53 l 53 132 l 96 79 l 139 32 l 14 -42 l -36 1 l -82 53 z "},"/":{"ha":521,"x_min":-114,"x_max":553,"o":"m 498 1023 l 553 1023 l -60 -178 l -114 -178 l 498 1023 z "},":":{"ha":379,"x_min":-82,"x_max":227,"o":"m 5 286 l 140 366 l 184 313 l 227 265 l 103 192 q 53 235 67 219 l 5 286 m -82 53 l 53 132 l 96 79 l 139 32 l 14 -42 l -36 1 l -82 53 z "},";":{"ha":379,"x_min":-103,"x_max":227,"o":"m 86 130 q 111 75 106 96 q 115 60 113 66 q 118 39 117 49 q 35 -79 118 -16 q -95 -155 -23 -123 l -103 -135 q -21 -24 -21 -87 q -54 53 -21 14 l 86 130 m 5 286 l 140 366 l 184 313 l 227 265 l 103 191 l 52 235 l 5 286 z "},"<":{"ha":1157,"x_min":179,"x_max":978,"o":"m 978 786 l 978 682 l 321 414 l 978 147 l 978 43 l 179 371 l 179 458 l 978 786 z "},"=":{"ha":1157,"x_min":172,"x_max":985,"o":"m 172 327 l 985 327 l 985 232 l 172 232 l 172 327 m 172 596 l 985 596 l 985 502 l 172 502 l 172 596 z "},">":{"ha":1157,"x_min":179,"x_max":978,"o":"m 179 786 l 978 458 l 978 371 l 179 43 l 179 147 l 838 414 l 179 682 l 179 786 z "},"?":{"ha":675,"x_min":25,"x_max":650,"o":"m 25 53 l 160 132 q 199 86 167 122 l 246 32 l 121 -42 l 71 3 l 25 53 m 203 195 l 161 243 q 125 300 145 263 q 505 649 505 507 q 467 730 505 702 q 378 755 432 755 q 310 742 342 755 q 278 726 283 731 q 253 705 270 722 q 221 541 253 622 q 168 471 194 471 q 139 543 139 471 q 189 682 139 618 q 336 802 246 755 q 500 849 425 849 q 606 816 565 849 q 650 717 650 780 q 574 554 650 631 q 279 354 498 477 l 304 311 l 332 270 l 203 195 z "},"@":{"ha":1370,"x_min":96,"x_max":1275,"o":"m 804 225 q 596 85 722 85 q 451 155 504 85 q 404 314 404 218 q 534 593 404 469 q 633 662 583 640 q 738 684 684 684 q 888 554 857 684 l 922 673 l 1029 672 l 910 249 q 900 191 900 218 q 918 135 900 155 q 961 118 934 118 q 1015 132 981 118 q 1076 167 1050 146 q 1198 320 1156 228 q 1239 538 1239 413 q 1097 840 1239 718 q 771 949 971 949 q 544 907 648 949 q 357 785 439 866 q 229 591 270 697 q 185 347 185 479 q 224 135 185 224 q 517 -120 303 -47 q 725 -153 614 -153 q 839 -145 787 -153 q 947 -117 881 -138 q 1150 -13 1057 -81 l 1173 -41 q 960 -151 1074 -112 q 726 -191 846 -191 q 306 -68 469 -191 q 152 120 208 5 q 96 364 96 234 q 325 835 96 644 q 757 986 506 986 q 1133 859 991 986 q 1275 519 1275 731 q 1122 157 1275 294 q 946 83 1040 83 q 804 225 818 83 m 749 652 q 621 564 679 652 q 546 406 578 498 q 515 250 515 316 q 543 157 515 194 q 611 121 571 121 q 694 150 656 121 q 768 241 728 175 q 853 513 853 378 q 824 612 853 572 q 749 652 795 652 z "},"A":{"ha":875,"x_min":-218,"x_max":720,"o":"m 336 421 l 406 408 l 469 406 l 488 407 q 506 588 488 447 l 535 812 l 484 696 q 446 621 479 686 q 336 421 395 518 m 553 983 l 635 1013 l 707 1040 q 640 751 666 911 q 618 593 629 684 q 606 408 606 486 l 652 410 l 713 418 l 665 387 l 617 361 l 599 357 l 595 282 l 593 225 q 602 155 592 177 q 627 135 610 136 q 665 156 641 134 q 713 214 689 177 l 720 186 q 500 -28 553 -28 q 467 -3 481 -28 q 452 60 450 26 l 458 161 l 478 330 l 435 326 l 342 326 l 282 330 q -135 -147 -11 -147 q -211 -96 -191 -147 q -218 -54 -218 -78 q -60 260 -218 85 l -33 262 q -131 60 -131 134 q -117 16 -131 31 q -79 -1 -104 -1 q 243 334 13 -1 l 187 336 l 133 343 l 223 389 l 308 440 q 486 775 428 644 q 536 899 522 854 q 553 983 553 947 z "},"B":{"ha":852,"x_min":-42,"x_max":850,"o":"m 279 458 l 444 522 l 474 517 l 500 507 q 618 654 570 571 q 675 831 675 751 q 645 881 675 881 q 440 701 578 881 q 279 458 335 564 m 142 861 q 404 1021 353 1010 q 432 985 432 1021 q 309 567 432 907 q 522 839 406 709 q 785 1036 698 1036 q 837 995 819 1036 q 850 924 850 964 q 777 726 850 827 q 678 620 745 684 q 530 494 618 563 q 624 425 589 473 q 659 314 659 376 q 569 98 659 206 q 388 -60 498 12 q 285 0 326 -51 q 246 118 246 47 q 265 224 246 171 q 279 258 271 242 l 296 271 l 290 241 l 289 205 q 335 70 286 127 q 449 16 380 16 q 517 130 496 77 q 541 241 541 186 q 474 375 541 328 q 265 436 408 422 l 193 265 l 107 54 l -35 -57 l -41 -46 l -42 -33 q 29 164 -42 5 q 189 563 140 412 q 224 682 210 627 q 254 848 254 804 q 228 882 254 878 q 199 871 218 882 q 168 853 187 866 q 140 835 159 847 l 142 861 z "},"C":{"ha":758,"x_min":-26,"x_max":819,"o":"m 560 304 l 631 317 q 165 -41 384 -41 q 22 19 75 -41 q -26 168 -26 76 q 174 629 -26 374 q 463 909 311 804 q 726 1014 615 1014 q 793 990 770 1014 q 819 929 819 970 q 767 792 819 867 q 701 713 746 762 q 610 621 654 661 q 489 531 557 574 q 363 468 444 503 l 349 507 q 586 637 492 548 q 681 811 681 727 q 651 884 681 856 q 576 913 621 913 q 396 819 504 913 q 273 677 335 765 q 168 496 215 595 q 130 389 143 442 q 117 289 117 336 q 167 134 117 190 q 310 77 224 70 l 361 81 q 401 95 385 85 q 560 304 516 208 z "},"D":{"ha":1003,"x_min":-70,"x_max":978,"o":"m 199 151 q 517 92 399 92 q 570 95 553 92 q 608 103 583 96 q 680 136 649 115 q 805 323 753 189 q 852 547 852 445 q 781 770 852 677 q 585 901 710 862 q 343 435 564 867 l 199 151 m 60 518 l 54 566 l 52 611 q 61 706 49 653 q 98 770 73 741 q 599 1015 315 1015 q 876 897 769 1015 q 978 610 978 782 q 873 291 978 444 q 629 54 783 159 q 516 -6 574 16 q 411 -28 458 -28 q 339 -20 383 -28 q 227 9 336 -19 l 107 39 q 2 -41 51 -10 q -58 -71 -47 -71 l -67 -68 l -70 -61 q -26 56 -70 -26 l -21 66 q 28 155 -3 101 q 61 180 46 180 q 142 165 82 180 l 147 164 l 413 793 l 493 852 l 562 909 l 538 910 l 502 911 q 321 883 420 912 q 210 824 237 859 q 157 732 186 794 l 60 518 z "},"E":{"ha":743,"x_min":-24,"x_max":746,"o":"m 521 296 l 588 304 q 414 79 518 173 q 163 -38 287 -38 q 30 14 83 -38 q -24 142 -24 65 q 97 361 -24 255 q 319 497 190 443 q 227 552 257 519 q 196 629 196 585 q 275 787 196 701 q 413 907 316 830 q 464 946 442 930 q 531 989 504 975 q 606 1010 571 1010 q 705 979 663 1010 q 746 913 746 949 q 703 815 746 866 q 647 760 686 794 q 574 701 609 726 l 551 713 q 604 760 585 736 q 621 806 621 785 q 581 871 622 844 q 505 895 545 895 l 488 895 q 463 889 481 895 q 425 873 440 885 q 335 717 335 787 q 425 595 335 639 q 582 559 496 559 l 595 559 l 524 511 l 468 468 l 425 474 l 395 477 q 318 463 363 477 q 292 450 314 461 q 177 359 227 418 q 121 227 121 292 q 168 134 121 166 q 273 104 210 104 q 364 116 314 104 q 442 147 409 126 l 488 220 l 521 296 z "},"F":{"ha":775,"x_min":48,"x_max":840,"o":"m 134 720 q 240 901 170 809 q 401 1017 330 1017 q 597 968 448 1017 q 840 900 718 930 l 690 824 q 654 747 686 815 q 621 667 646 729 q 562 502 600 612 l 582 498 l 646 498 l 664 500 l 599 461 l 528 416 l 496 327 q 391 102 428 138 q 252 -4 328 41 q 139 -45 183 -45 q 73 -24 98 -45 q 48 33 48 -3 q 86 142 48 77 q 190 275 126 210 l 214 285 q 197 257 209 277 q 182 225 186 237 q 171 171 171 196 q 197 109 171 135 q 261 82 227 79 l 278 83 l 294 86 q 354 218 319 130 q 395 336 370 258 l 425 424 q 272 435 362 424 q 127 457 194 444 l 197 497 l 262 542 l 371 518 l 452 507 l 525 767 q 633 827 581 782 q 477 865 587 831 q 317 897 376 897 q 241 861 267 897 q 196 720 215 825 l 134 720 z "},"G":{"ha":827,"x_min":-16,"x_max":792,"o":"m 185 -53 l 180 -74 l 180 -95 q 237 -214 180 -171 q 403 53 318 -164 q 488 249 446 163 l 482 253 q 185 -53 318 -9 m 591 631 l 553 631 q 595 674 579 654 q 629 724 617 703 q 657 817 657 772 q 633 885 657 859 q 567 910 606 910 q 463 878 523 910 q 349 786 408 849 q 189 549 252 683 q 119 274 119 401 q 158 129 119 182 q 260 75 196 75 l 283 78 l 310 86 q 420 224 363 136 q 478 321 454 277 q 534 432 500 361 l 446 440 l 357 445 l 482 526 l 611 510 l 730 503 q 589 246 651 415 l 571 196 q 421 -98 503 8 q 164 -300 322 -229 q 142 -248 155 -283 q 135 -182 135 -217 q 142 -113 135 -159 q 161 -52 146 -85 q 26 29 75 -52 q -16 189 -16 98 q 78 498 -16 323 q 327 814 177 681 q 531 965 437 912 q 685 1018 624 1018 q 762 992 732 1018 q 792 924 792 966 q 736 792 792 873 q 591 631 680 710 z "},"H":{"ha":1003,"x_min":-296,"x_max":1006,"o":"m -296 20 l -182 9 l -81 5 q 49 106 -23 3 q 197 420 125 216 l 204 439 l 95 452 l 242 550 q 298 724 262 608 q 318 832 318 806 q 313 855 318 849 q 294 861 309 861 l 262 853 l 199 825 l 199 850 q 474 1002 439 1002 q 503 958 498 1002 q 465 814 503 926 q 354 518 422 686 l 478 510 l 663 493 q 754 758 719 665 q 796 860 755 762 q 831 942 809 890 q 967 979 875 951 q 1006 994 985 985 q 860 680 956 905 l 778 488 l 803 488 l 833 486 l 863 488 l 904 490 l 753 408 q 703 261 723 340 q 685 150 685 187 q 713 95 685 95 q 800 176 745 95 l 810 146 q 583 -58 653 -58 q 531 33 531 -58 q 557 196 531 105 q 591 296 566 227 q 636 413 615 362 l 625 411 l 583 411 q 525 413 574 411 q 460 414 500 413 l 323 425 l 313 389 q 216 139 257 205 q -131 -77 162 54 l -143 -82 l -296 20 z "},"I":{"ha":599,"x_min":-61,"x_max":640,"o":"m 144 732 q 275 929 187 852 q 453 1003 363 1006 l 640 998 q 535 873 566 935 q 433 581 492 791 q 332 267 368 351 q 169 11 272 125 q -24 -128 65 -104 q -61 -28 -61 -91 q -25 151 -61 50 q 0 213 -17 175 l 71 265 q 45 188 57 240 q 32 95 32 134 q 43 22 32 51 q 75 -20 54 -7 q 184 189 133 46 q 252 414 205 248 q 353 741 313 632 q 429 896 395 857 l 395 897 l 363 900 l 318 896 q 299 892 306 893 q 265 882 292 892 q 239 839 249 863 l 212 766 l 184 751 l 144 732 z "},"J":{"ha":660,"x_min":-75,"x_max":720,"o":"m 720 985 q 507 522 629 918 q 460 370 484 445 q 392 168 433 283 q 375 121 387 155 q 347 57 366 100 q 328 12 341 41 q 306 -31 320 -5 q 229 -132 275 -83 q 106 -236 197 -167 q 44 -273 85 -252 q -21 -299 -5 -299 q -57 -268 -39 -299 q -75 -197 -75 -237 q 69 151 -75 -42 l 111 165 q 28 -104 28 56 q 36 -172 28 -144 q 64 -210 47 -199 q 232 73 153 -125 q 357 467 272 173 q 514 890 442 758 l 468 896 l 431 897 q 404 897 431 897 q 378 895 391 897 l 336 886 q 257 754 285 823 q 229 629 229 686 q 248 564 229 591 q 306 532 269 532 q 325 535 318 532 l 343 545 q 313 507 332 529 q 189 389 263 450 q 132 434 152 401 q 113 510 113 467 q 169 709 113 602 q 290 880 217 802 q 484 1000 404 1000 q 591 992 475 1000 l 697 985 l 720 985 z "},"K":{"ha":939,"x_min":-53,"x_max":957,"o":"m -53 -85 q 171 482 75 199 q 258 810 258 742 q 252 837 258 829 q 231 848 246 844 q 201 838 221 848 q 180 827 193 835 q 155 807 164 814 l 146 833 q 413 1004 374 1004 q 446 958 441 1004 q 401 787 446 926 q 283 448 344 608 q 360 458 309 448 q 399 467 378 462 q 433 479 408 470 q 683 768 525 592 q 938 1011 903 1011 q 951 1004 947 1007 q 957 989 954 1000 q 751 684 957 876 q 449 444 614 557 q 646 89 577 89 q 735 163 684 89 l 742 134 q 652 21 704 79 q 543 -62 576 -62 q 392 225 503 -62 l 350 334 q 207 168 258 235 q 151 90 191 146 q 106 20 123 50 l 31 -29 l -53 -85 m 172 170 l 241 250 l 335 364 q 307 416 319 400 q 282 440 298 431 l 227 289 l 172 170 z "},"L":{"ha":836,"x_min":-165,"x_max":832,"o":"m 578 648 l 553 659 q 677 828 677 752 q 652 895 677 871 q 582 918 627 918 l 553 914 l 518 903 q 467 835 492 882 q 397 685 427 762 l 353 567 q 183 207 256 313 q 333 110 216 204 l 350 96 q 450 24 420 40 q 524 1 491 1 q 661 180 606 50 l 735 195 q 404 -118 604 -22 q 257 -18 354 -110 q 102 109 163 71 q -12 5 50 52 q -146 -60 -96 -60 l -160 -56 q -165 -46 -165 -54 q -68 102 -165 19 q 89 200 14 172 q 190 492 139 347 q 311 767 254 679 q 393 856 342 815 q 534 947 441 894 q 591 978 553 959 q 649 1000 615 989 q 743 1018 700 1018 q 810 1000 787 1018 q 832 950 832 983 q 578 648 832 835 z "},"M":{"ha":1244,"x_min":-282,"x_max":1133,"o":"m 260 875 l 264 901 l 343 946 q 502 1014 465 1014 q 557 944 547 1014 q 559 842 559 932 q 557 771 559 829 l 555 721 q 544 366 553 602 q 538 250 538 271 l 538 222 l 541 192 q 551 185 545 185 q 618 265 564 185 q 706 404 631 284 q 781 524 731 444 q 943 917 943 795 l 1126 1017 l 1131 1013 l 1133 1007 l 1125 978 q 1068 782 1104 913 q 987 372 1019 560 q 958 143 958 201 q 966 113 958 122 q 983 102 971 102 q 1072 174 1013 102 l 1082 147 q 937 -9 990 39 q 850 -61 878 -61 q 803 13 803 -61 q 924 701 803 170 q 752 420 804 505 q 572 144 654 264 q 428 -20 460 -20 q 404 -1 413 -20 q 397 71 396 24 l 418 755 q -12 -42 216 264 q -112 -150 -64 -113 q -201 -186 -160 -186 q -259 -159 -237 -186 q -282 -96 -282 -132 q -114 221 -282 38 l -86 225 q -176 33 -176 106 q -128 -22 -176 -22 q -24 33 -79 -22 q 113 217 34 92 q 327 608 248 433 q 408 863 408 790 q 397 900 408 890 q 364 913 387 913 q 292 892 339 913 q 260 875 277 886 z "},"N":{"ha":1003,"x_min":-188,"x_max":983,"o":"m 133 828 q 289 947 227 909 q 427 1014 356 989 q 554 685 492 911 q 612 442 587 566 q 665 143 637 321 q 833 501 773 343 q 893 751 893 659 q 817 865 893 865 q 707 786 761 865 l 693 810 q 760 892 720 848 q 824 957 804 939 q 926 1011 886 1011 q 968 985 952 1011 q 983 913 983 960 q 873 500 983 769 q 575 -77 760 222 l 564 -78 q 388 753 500 416 q 89 64 281 391 q -134 -191 -60 -191 q -171 -164 -155 -191 q -188 -104 -188 -137 q -24 228 -188 42 l 19 241 q -31 187 -16 205 q -66 132 -45 170 q -96 32 -96 77 q -68 -3 -96 2 q 55 104 -18 -3 q 109 192 79 141 q 255 486 182 322 q 353 789 353 706 q 335 852 353 829 q 282 872 315 872 q 139 798 222 872 l 133 828 z "},"O":{"ha":932,"x_min":-5,"x_max":939,"o":"m 437 926 l 460 922 q 236 667 320 817 q 147 340 147 507 q 214 152 147 224 q 397 77 282 77 q 602 170 511 77 q 734 379 681 250 q 787 620 787 507 q 749 785 787 718 q 611 867 703 867 q 370 693 486 867 l 335 692 l 463 850 q 530 935 488 880 q 566 990 553 968 q 610 1007 591 1003 q 685 1014 641 1014 q 872 925 800 1014 q 939 725 939 843 q 863 426 939 572 q 642 153 787 281 q 433 6 532 58 q 256 -46 333 -46 q 65 31 136 -46 q -5 236 -5 108 q 129 633 -5 440 q 437 926 247 803 z "},"P":{"ha":824,"x_min":-26,"x_max":828,"o":"m 147 802 l 150 836 l 359 974 q 420 1006 407 1006 q 446 968 446 1006 q 428 867 446 934 q 367 672 406 788 l 374 668 q 579 913 478 820 q 734 1007 680 1007 q 803 966 778 1007 q 828 848 828 924 q 603 400 828 584 q 347 274 484 303 q 261 264 300 264 l 235 264 l 220 265 q 188 178 208 233 q 150 47 150 73 q 156 29 150 35 q 174 21 160 24 q 243 49 193 21 q 274 70 253 54 l 273 39 l 93 -70 q 45 -92 82 -77 q 13 -100 23 -100 q -26 -61 -26 -100 q 1 39 -26 -28 l 107 294 l 81 315 q 52 342 71 323 l 99 371 l 140 400 l 204 576 q 237 678 223 630 q 265 808 265 771 q 258 833 265 824 q 235 842 250 842 q 147 802 195 842 m 248 343 l 293 331 l 342 327 q 400 332 368 325 q 463 357 432 340 q 497 380 484 370 q 519 401 504 386 q 575 469 548 430 q 678 767 678 619 q 664 840 678 814 q 620 865 650 865 q 395 645 526 865 q 248 343 307 498 z "},"Q":{"ha":939,"x_min":-64,"x_max":900,"o":"m 749 96 l 791 95 q 460 -124 608 -124 q 93 -17 328 -124 l 61 -24 l 26 -26 q -20 -20 7 -28 q -64 1 -42 -13 l 68 134 q 106 124 84 132 q 175 99 146 110 l 222 81 q 572 311 428 155 q 736 689 736 488 q 688 848 736 791 q 549 904 640 904 q 311 751 405 904 q 231 467 231 619 q 351 307 231 307 q 437 332 395 307 q 503 393 479 356 l 542 393 q 406 261 479 315 q 232 193 311 193 q 113 254 157 193 q 75 387 75 308 q 168 659 75 519 q 243 751 193 695 q 469 937 349 868 q 688 1007 594 1007 q 847 936 789 1007 q 900 766 900 870 q 738 382 900 563 q 264 58 576 201 q 545 -21 455 -21 q 654 8 602 -21 q 749 96 706 38 z "},"R":{"ha":920,"x_min":-12,"x_max":880,"o":"m 307 436 l 312 437 l 420 492 l 440 490 l 474 489 l 490 490 l 517 493 q 656 639 598 541 q 713 811 713 734 q 705 854 713 840 q 675 869 696 867 q 521 747 628 869 q 307 436 421 633 m 161 806 l 159 838 l 306 930 q 439 1007 427 1007 q 466 966 459 1007 q 441 838 466 935 q 406 706 429 791 q 376 611 399 678 l 378 606 q 635 907 517 798 q 814 1015 750 1015 q 865 979 848 1015 q 880 913 880 950 q 770 629 880 764 q 448 442 673 511 q 517 298 496 340 q 596 159 562 207 q 669 99 637 99 q 703 110 688 99 q 760 167 718 120 l 770 135 l 706 62 q 574 -58 600 -58 q 433 158 547 -58 q 296 425 364 292 q 231 254 264 354 q 204 170 226 239 l 172 67 q 128 33 157 56 q 54 -29 104 13 l -5 -78 l -10 -77 l -12 -70 q 16 5 -12 -65 l 45 79 q 277 787 277 667 q 265 828 277 815 q 237 843 257 843 q 207 835 227 843 l 161 806 z "},"S":{"ha":726,"x_min":-46,"x_max":749,"o":"m 592 654 l 555 659 q 608 713 596 692 q 623 766 623 736 q 570 849 623 821 q 468 872 528 872 q 251 711 251 872 q 407 546 251 624 l 452 524 q 549 450 519 490 q 574 359 574 416 q 338 17 574 192 q 244 -29 301 -10 q 142 -47 187 -47 q 15 -6 76 -47 q -46 64 -46 36 q -3 178 -46 96 q 105 343 45 271 l 155 347 q 93 281 114 315 q 71 216 71 244 q 126 134 71 167 q 262 100 181 100 q 410 127 361 100 q 474 252 474 162 q 425 348 474 307 q 327 404 396 372 q 203 477 238 446 q 147 602 147 527 q 175 714 147 653 q 257 836 201 772 q 567 1010 408 1010 q 695 963 641 1010 q 749 877 749 916 q 682 761 749 848 q 592 654 628 690 z "},"T":{"ha":903,"x_min":74,"x_max":999,"o":"m 74 838 l 104 861 q 281 1013 245 970 q 399 983 317 1006 q 497 954 453 968 q 711 906 647 906 l 872 978 q 985 1013 923 1001 l 999 998 q 878 848 969 907 q 785 803 836 820 q 685 787 729 785 l 654 789 l 611 795 q 361 583 442 694 q 281 342 281 472 q 347 163 281 240 q 513 67 412 86 q 617 178 571 117 q 696 310 661 236 l 764 318 q 585 92 690 199 q 349 -53 444 -53 q 323 -47 336 -53 l 293 -28 q 167 118 223 17 q 118 293 118 205 q 230 541 118 413 q 568 803 342 669 l 420 838 q 212 878 245 878 q 155 865 184 878 q 92 827 128 854 l 74 838 z "},"U":{"ha":971,"x_min":11,"x_max":928,"o":"m 146 844 l 353 983 q 417 1015 394 1011 q 446 1000 435 1015 q 455 960 455 985 q 351 633 455 912 l 321 551 l 276 435 q 191 178 191 214 q 200 149 191 160 q 222 138 207 138 q 378 262 269 138 q 509 429 452 347 q 629 646 572 522 q 754 956 684 764 l 831 985 q 896 1010 850 992 q 922 1019 905 1013 l 926 1017 l 928 1013 q 884 906 928 1005 l 824 772 q 671 391 711 519 q 636 195 636 280 q 649 130 636 149 q 682 110 659 113 q 779 178 719 110 l 789 153 q 637 10 711 66 q 530 -43 566 -43 q 475 62 475 -43 q 492 233 475 141 q 538 414 507 321 l 534 417 q 260 86 401 216 q 47 -43 119 -43 q 11 -1 11 -43 q 79 207 11 22 l 144 387 q 233 660 186 502 q 269 807 269 782 q 232 854 269 854 q 208 849 221 854 q 188 838 195 841 q 153 819 168 827 l 146 844 z "},"V":{"ha":791,"x_min":77,"x_max":842,"o":"m 79 808 l 77 839 l 290 978 q 359 1011 341 1011 q 380 994 375 1011 q 389 941 389 977 q 370 743 389 866 q 317 471 355 646 l 276 283 q 264 175 264 227 q 274 136 264 150 q 303 121 283 121 q 498 379 366 121 q 642 697 581 543 l 628 721 q 624 747 624 732 q 629 786 624 763 l 639 827 q 649 849 644 838 q 720 966 675 913 q 782 1015 761 1015 q 806 971 806 1015 q 804 937 806 947 q 781 856 796 903 q 762 807 772 831 q 792 759 772 781 q 842 724 812 736 l 786 694 q 736 667 772 686 q 685 643 709 652 q 545 376 620 506 q 399 147 463 236 q 200 -56 252 -56 q 148 -24 172 -56 q 123 47 123 7 q 139 138 123 52 l 154 220 l 210 566 q 227 742 227 671 q 213 820 227 795 q 167 844 199 844 q 104 824 145 844 l 79 808 z "},"W":{"ha":1100,"x_min":61,"x_max":1179,"o":"m 64 808 l 61 835 l 90 854 q 339 1007 317 1007 q 361 990 353 1007 q 368 943 368 976 q 318 631 368 872 l 293 510 l 252 296 q 237 191 237 222 q 271 138 237 138 q 370 237 308 138 l 391 271 l 393 277 q 572 583 541 505 l 591 694 q 597 775 597 736 q 583 857 597 829 q 541 903 574 885 l 600 942 q 721 1011 705 1011 q 757 954 757 1011 q 743 828 757 899 l 663 414 q 618 159 618 200 q 629 128 618 140 q 654 114 639 114 q 851 355 725 114 q 990 659 924 493 q 958 705 968 684 q 950 760 950 737 q 974 867 950 815 q 1042 968 999 921 q 1072 997 1057 983 q 1109 1017 1092 1013 q 1138 953 1138 1017 q 1128 882 1138 929 q 1100 793 1120 850 q 1179 713 1120 739 l 1086 657 l 1039 631 q 749 124 875 294 q 532 -56 616 -56 q 478 16 478 -56 q 511 216 478 51 l 563 471 q 387 182 431 248 q 164 -56 230 -56 q 115 -28 133 -56 q 99 47 99 -3 q 131 241 99 83 l 160 385 q 176 478 165 411 q 196 602 184 519 l 208 745 q 192 819 212 789 q 142 842 176 842 q 109 835 130 842 l 64 808 z "},"X":{"ha":1003,"x_min":-131,"x_max":939,"o":"m 161 815 q 331 963 264 913 q 432 1015 401 1015 q 505 938 485 1015 q 524 608 524 863 l 524 526 l 729 796 q 800 931 752 864 q 914 1019 861 1019 q 939 995 935 1019 q 920 943 939 977 q 897 910 907 922 q 865 872 884 891 l 865 856 q 882 774 865 812 q 921 724 899 737 q 823 680 887 711 l 743 633 l 730 674 l 726 715 l 726 725 l 528 481 q 539 302 528 386 q 570 171 550 222 q 688 52 608 73 q 838 282 790 141 l 907 294 q 761 70 857 176 q 539 -62 642 -62 q 445 41 477 -62 q 418 176 430 88 q 407 357 407 263 q -70 -99 38 -99 q -131 -4 -131 -99 q -87 166 -131 83 q 43 325 -44 250 l 56 311 q -49 77 -49 205 q -5 -1 -49 0 q 124 93 29 -2 q 403 404 209 178 q 376 793 403 697 q 307 868 356 868 q 170 786 259 868 l 161 815 z "},"Y":{"ha":868,"x_min":78,"x_max":970,"o":"m 475 285 q 359 113 423 197 q 217 -29 270 -5 q 203 -75 206 -57 l 198 -117 q 199 -144 198 -135 q 203 -163 203 -157 q 221 -205 210 -186 q 479 283 347 -130 l 475 285 m 78 856 l 128 892 q 338 1023 311 1023 q 374 928 374 1023 q 318 565 374 800 q 262 232 262 330 q 275 171 262 195 q 311 147 289 147 q 568 503 394 147 q 756 938 670 714 l 853 974 l 970 1019 q 905 922 941 983 q 852 824 900 914 q 808 741 837 796 q 602 296 718 568 q 458 -24 491 39 q 397 -107 441 -57 q 354 -153 385 -122 q 296 -204 337 -169 q 156 -296 195 -290 q 132 -277 143 -296 q 124 -227 124 -257 q 142 -139 124 -186 q 202 -28 161 -92 q 141 13 162 -16 q 120 86 117 46 l 124 142 l 138 216 l 142 232 q 229 767 229 576 q 167 859 229 859 q 106 844 143 859 q 82 832 96 840 l 78 856 z "},"Z":{"ha":817,"x_min":-96,"x_max":875,"o":"m 143 760 q 277 901 196 823 q 422 1013 390 1013 q 535 983 437 1013 q 717 938 633 954 q 849 1013 794 1013 q 875 987 870 1013 q 820 897 875 946 q 690 831 765 848 l 123 178 l 143 182 q 178 174 160 182 l 239 143 q 334 93 273 125 q 404 61 380 70 q 500 42 456 42 q 528 45 519 42 l 554 53 q 589 115 575 81 q 608 179 602 146 l 667 188 q 557 7 628 91 q 383 -98 467 -98 q 207 -14 312 -98 l 180 7 q 138 38 163 20 q 106 58 119 51 q 53 73 74 73 q -74 -36 -28 -36 q -89 -28 -82 -36 q -96 -9 -96 -21 q -40 109 -96 54 q 73 179 7 154 l 628 839 q 486 856 583 839 q 342 872 377 875 l 309 869 l 271 864 q 242 829 256 850 l 212 770 l 143 760 z "},"[":{"ha":392,"x_min":-170,"x_max":564,"o":"m 334 1000 l 357 999 l 440 995 l 564 1000 l 547 953 l 416 958 l 298 628 q 179 315 283 588 q -54 -267 53 -16 l 81 -262 l 62 -309 l 9 -307 l -114 -307 l -170 -309 l 122 440 q 239 746 180 589 q 334 1000 269 827 z "},"\\":{"ha":521,"x_min":90,"x_max":509,"o":"m 90 1023 l 142 1023 l 509 -178 l 459 -178 l 90 1023 z "},"]":{"ha":392,"x_min":-278,"x_max":457,"o":"m -46 -309 l -67 -307 l -155 -303 l -278 -309 l -260 -262 l -128 -267 l -9 66 q 110 380 31 173 q 342 958 231 697 l 207 954 l 225 1000 l 279 999 l 401 999 l 457 1000 l 159 233 q -46 -309 33 -90 z "},"^":{"ha":1389,"x_min":279,"x_max":1107,"o":"m 628 992 l 760 992 l 1107 608 l 1041 608 l 693 893 l 345 608 l 279 608 l 628 992 z "},"_":{"ha":694,"x_min":0,"x_max":694,"o":"m 0 -231 l 694 -231 l 694 -328 l 0 -328 l 0 -231 z "},"`":{"ha":694,"x_min":309,"x_max":587,"o":"m 309 999 l 458 971 l 587 783 l 486 803 l 309 999 z "},"a":{"ha":541,"x_min":-111,"x_max":505,"o":"m 325 530 q 253 600 301 600 q 221 583 239 600 q 175 526 198 562 q 86 347 126 452 q 42 153 42 230 q 48 114 42 127 q 67 100 54 100 q 168 187 101 100 q 246 304 212 244 l 294 408 q 357 546 317 461 l 354 550 l 325 530 m 400 132 l 405 102 q 207 -36 279 -36 q 179 -24 191 -36 q 171 14 171 -12 q 188 107 171 52 q 237 235 207 170 l 231 236 q 57 36 144 115 q -68 -39 -26 -39 q -111 38 -111 -39 q -86 180 -111 100 q -16 349 -61 261 q 25 420 8 394 q 163 579 94 524 q 257 640 199 608 q 359 678 327 678 q 397 660 372 678 q 431 617 418 640 q 471 639 444 625 l 496 654 l 502 653 l 505 648 q 496 625 503 640 q 474 576 491 614 l 421 453 q 347 252 382 363 q 317 117 317 161 q 322 95 317 103 q 338 85 327 85 q 366 96 350 85 l 400 132 z "},"b":{"ha":541,"x_min":-56,"x_max":477,"o":"m 185 52 q 302 265 260 151 q 345 473 345 382 q 334 532 345 511 q 299 551 321 551 q 184 449 251 551 q 147 376 161 415 l 103 258 q 78 147 78 191 q 109 77 78 102 q 185 52 139 52 m 221 920 q 299 951 231 922 q 384 994 344 970 q 334 885 350 924 q 282 764 313 839 l 182 502 l 186 498 q 329 625 266 581 q 428 669 392 669 q 477 583 477 669 q 434 366 477 477 q 304 140 391 254 q 174 5 243 59 q 67 -42 113 -42 q -19 -4 17 -42 q -56 85 -56 34 q 65 483 -56 144 q 221 920 143 701 z "},"c":{"ha":418,"x_min":-82,"x_max":416,"o":"m 213 178 l 275 191 q 158 49 233 117 q 1 -35 68 -35 q -64 12 -42 -35 q -82 98 -82 49 q 147 564 -82 340 q 276 648 197 613 q 395 682 354 682 q 410 674 403 682 l 416 653 q 359 481 416 606 l 331 468 q 279 446 312 460 q 237 425 258 436 q 270 495 258 461 q 282 555 282 528 q 275 587 282 576 q 254 596 267 596 q 222 582 237 596 q 184 541 208 572 q 96 366 134 476 q 57 175 57 255 q 77 98 57 125 q 127 70 96 70 l 138 70 q 213 178 183 102 z "},"d":{"ha":585,"x_min":-110,"x_max":645,"o":"m 323 521 q 309 551 317 539 q 289 576 302 563 q 250 596 267 596 q 165 500 218 596 q 92 345 117 412 q 61 261 79 314 q 38 136 38 184 q 45 110 38 117 q 66 100 50 100 q 198 227 106 100 q 360 535 289 354 l 357 539 l 323 521 m 645 994 q 551 746 629 954 q 475 543 508 633 l 420 388 q 353 124 353 188 q 359 100 353 107 q 374 92 363 92 q 397 99 387 92 l 425 119 l 427 92 q 317 -5 372 35 q 232 -41 268 -41 q 205 -29 217 -41 q 197 5 198 -16 q 241 191 196 51 q 271 278 250 219 l 265 281 q 81 50 176 142 q -60 -35 -7 -35 q -98 -18 -82 -35 q -110 32 -110 -1 q -56 260 -110 130 q 58 467 -9 376 q 192 600 106 532 q 356 681 294 681 q 378 672 368 681 q 407 645 389 668 q 446 783 412 674 l 491 928 q 564 953 530 937 q 592 966 576 959 q 645 994 618 978 z "},"e":{"ha":418,"x_min":-82,"x_max":425,"o":"m 113 425 l 139 418 l 171 416 l 184 416 l 205 418 q 259 476 240 445 q 278 536 278 508 q 267 570 278 557 q 241 583 260 581 l 222 579 l 218 578 q 113 425 142 510 m 231 213 l 291 217 q 182 50 261 136 q 18 -49 92 -49 q -54 -11 -26 -49 q -82 90 -82 28 q -38 298 -82 190 q 78 489 5 403 q 229 621 149 573 q 371 669 309 669 q 411 657 396 669 q 425 621 425 643 q 400 548 425 589 q 319 461 374 507 q 258 418 292 439 q 195 382 237 406 q 135 360 176 373 q 85 351 106 351 q 57 248 64 303 q 54 217 55 231 q 53 188 53 181 q 139 64 53 64 l 150 64 l 159 66 q 200 125 183 90 q 220 168 211 148 q 231 213 224 180 z "},"f":{"ha":387,"x_min":-207,"x_max":489,"o":"m 335 442 l 270 366 l 180 367 l 163 303 q 13 -144 64 -52 q -85 -283 -35 -231 q -171 -335 -136 -335 q -197 -314 -186 -335 q -207 -257 -207 -289 q -192 -172 -207 -217 q -180 -146 -189 -164 l -156 -131 l -161 -156 l -163 -171 q -136 -235 -163 -231 q -58 -73 -115 -235 q 1 111 -22 28 q 70 363 22 182 l 4 364 l 92 454 q 252 839 167 734 q 360 950 312 914 q 448 994 418 994 q 478 977 467 994 q 489 941 489 960 q 474 881 489 914 q 422 795 462 854 l 411 799 q 393 853 411 833 q 339 875 374 871 l 288 725 q 197 439 227 549 l 335 442 z "},"g":{"ha":521,"x_min":-153,"x_max":503,"o":"m 318 545 q 294 589 310 574 q 265 604 283 604 q 227 579 250 604 q 175 513 203 559 q 85 320 121 424 q 50 157 50 216 q 75 114 50 119 q 200 229 124 114 q 330 522 269 333 l 359 559 l 357 567 l 318 545 m 433 623 l 456 643 q 496 669 485 669 l 500 667 l 503 661 l 395 379 l 303 117 q 233 -71 247 -44 q 151 -175 214 -108 q 14 -299 85 -244 q -68 -335 -33 -335 q -127 -310 -101 -335 q -153 -253 -153 -286 q -129 -183 -153 -220 q -39 -90 -106 -146 l -20 -98 l -36 -136 l -41 -167 q 18 -246 -41 -237 q 100 -113 51 -225 q 203 185 151 3 q 49 20 125 87 q -53 -41 -19 -41 q -86 -15 -75 -41 q -98 52 -98 11 q -62 222 -98 119 q 199 617 25 473 q 353 694 292 694 q 391 680 374 694 q 433 623 405 667 z "},"h":{"ha":636,"x_min":-115,"x_max":607,"o":"m -115 -49 l 270 941 l 338 961 l 421 994 q 260 585 298 680 q 86 182 167 355 l 95 178 q 440 610 267 452 l 473 628 q 579 680 564 680 q 607 642 607 680 q 511 401 607 610 l 481 335 l 420 192 q 400 124 404 153 q 411 99 400 109 q 442 87 421 87 l 456 89 l 464 90 l 456 70 l 307 -17 q 258 -39 269 -39 q 235 -29 248 -39 q 227 -3 227 -17 q 241 53 226 14 q 298 184 261 107 l 357 309 q 422 468 422 445 q 418 486 422 479 q 403 492 413 492 q 202 282 346 492 q 39 17 99 131 l -35 -10 l -115 -49 z "},"i":{"ha":309,"x_min":-93,"x_max":392,"o":"m 156 815 l 206 863 l 254 918 l 326 900 l 392 895 q 330 823 374 852 q 241 793 287 793 q 197 799 211 793 q 156 815 179 801 m 121 597 l 225 649 l 277 677 l 282 675 l 284 671 l 229 549 q 124 303 192 469 l 70 155 q 58 98 58 123 l 62 79 q 77 71 70 71 q 113 96 89 71 q 135 127 127 116 q 160 171 148 146 l 140 73 q 12 -20 48 3 q -53 -47 -33 -47 q -81 -31 -70 -47 q -93 10 -93 -16 q 1 288 -93 48 q 121 597 115 581 z "},"j":{"ha":303,"x_min":-257,"x_max":388,"o":"m 132 618 l 295 689 q 103 185 204 463 q -13 -111 6 -82 q -124 -239 -56 -178 q -220 -303 -195 -303 q -249 -274 -239 -303 q -257 -229 -257 -252 q -250 -176 -257 -201 l -228 -119 l -204 -96 l -210 -128 l -213 -160 q -205 -195 -213 -180 q -191 -217 -200 -208 q -67 43 -155 -189 q -5 210 -37 123 q 60 401 16 267 l 132 618 m 151 817 l 199 863 q 229 896 225 892 q 248 920 232 900 q 312 901 279 907 q 377 895 340 895 l 388 895 q 319 820 361 847 q 232 795 280 795 l 217 795 q 191 800 199 799 l 151 817 z "},"k":{"ha":541,"x_min":-133,"x_max":474,"o":"m -133 -56 l -11 264 q 85 506 9 313 q 242 932 218 844 l 320 960 l 397 994 l 229 563 q 176 435 206 506 l 127 321 q 252 396 228 376 q 317 518 317 448 q 315 551 317 538 q 307 589 313 574 l 456 660 q 465 643 461 653 q 469 628 468 633 l 474 592 q 243 359 474 500 l 222 346 q 271 174 238 259 q 375 47 321 47 l 387 50 l 407 60 l 414 43 q 322 -25 360 -1 q 264 -50 281 -50 q 180 42 226 -50 q 114 273 134 135 l 109 270 l 16 36 l -52 -4 l -133 -56 z "},"l":{"ha":321,"x_min":-73,"x_max":391,"o":"m 237 935 l 315 960 l 391 994 q 216 539 349 876 q 81 132 81 200 q 87 103 81 117 q 111 93 96 93 q 131 99 121 93 l 165 119 l 174 104 l 124 53 q -4 -52 22 -52 q -54 -26 -35 -52 q -73 28 -73 -3 q 46 389 -73 87 q 237 935 155 665 z "},"m":{"ha":888,"x_min":-104,"x_max":835,"o":"m -104 -35 q -20 193 -50 106 q 76 510 52 400 q 89 600 89 570 l 89 610 l 87 624 l 113 636 q 225 685 213 685 q 239 681 233 685 q 243 663 243 675 q 179 452 243 622 q 96 218 123 302 l 107 213 q 235 429 172 332 q 366 616 292 519 l 410 637 q 524 688 511 688 q 536 682 532 685 q 541 668 541 678 q 473 475 541 643 q 350 150 399 292 l 361 143 l 422 239 q 697 631 577 484 l 750 660 q 817 693 810 693 q 831 687 827 690 q 835 675 835 684 q 755 439 835 637 l 747 418 q 709 319 737 393 q 680 241 688 269 q 656 146 656 169 q 688 107 656 112 l 701 110 l 720 115 l 724 96 l 581 0 q 521 -28 539 -28 q 490 18 490 -28 q 553 199 490 56 l 582 265 q 637 406 583 269 q 660 478 660 463 q 657 490 660 486 l 648 494 q 323 22 598 494 l 172 -35 l 216 86 q 277 246 227 115 q 355 486 355 449 l 353 497 q 342 502 345 502 q 225 363 313 502 q 48 22 145 236 l -26 -4 l -104 -35 z "},"n":{"ha":636,"x_min":-104,"x_max":606,"o":"m 32 0 l -41 -13 q -104 -35 -68 -18 q -16 203 -87 18 q 113 640 113 532 l 199 668 q 256 688 260 688 l 265 684 q 270 669 267 680 q 191 441 270 640 q 90 191 140 316 l 100 188 q 239 397 159 293 q 330 507 273 441 q 432 620 382 568 l 553 675 q 592 688 579 688 q 603 682 600 685 q 606 668 606 678 q 588 608 606 651 q 522 471 568 571 l 511 446 q 465 345 496 414 q 429 254 448 305 q 399 136 399 174 q 431 92 399 92 l 448 95 q 465 102 461 98 l 465 79 l 399 41 q 264 -29 279 -29 q 237 -16 250 -29 q 228 20 228 0 q 323 275 228 77 l 360 351 q 410 477 410 454 q 406 492 410 485 l 392 497 q 188 279 326 497 q 32 0 93 130 z "},"o":{"ha":502,"x_min":-82,"x_max":467,"o":"m 278 692 l 304 688 q 122 449 189 581 q 54 204 54 315 q 79 117 54 150 q 146 83 104 83 l 174 87 l 201 100 q 298 309 262 197 q 334 498 334 420 q 322 551 334 535 q 292 571 314 571 q 277 568 282 571 l 261 560 l 253 570 l 413 705 q 456 655 442 705 q 467 583 467 622 q 420 367 467 477 q 132 10 332 158 q 21 -45 58 -45 q -60 5 -32 -45 q -82 102 -82 44 q 35 432 -82 258 q 278 692 132 577 z "},"p":{"ha":560,"x_min":-212,"x_max":543,"o":"m 133 277 l 133 271 q 157 150 133 203 q 203 100 180 100 q 228 113 213 100 q 242 128 233 118 q 257 149 247 134 q 353 349 309 225 q 395 532 395 468 q 387 566 395 553 q 364 576 378 576 q 249 490 319 576 q 133 277 177 402 m -212 -303 q -111 -39 -154 -155 q -28 179 -95 3 q 36 351 18 301 q 124 618 116 574 q 204 659 152 630 q 241 678 219 666 q 277 701 255 688 q 252 612 271 669 l 237 571 q 210 503 228 543 l 214 500 q 378 637 303 589 q 497 690 460 690 q 531 675 518 690 q 543 631 543 659 q 306 135 543 401 q 212 43 272 97 q 110 -28 133 -28 q 90 60 88 -28 l 92 115 l 96 174 l 89 178 l 21 -9 q -54 -220 -3 -79 q -88 -235 -65 -224 q -124 -254 -100 -241 q -212 -303 -168 -277 z "},"q":{"ha":521,"x_min":-102,"x_max":538,"o":"m 346 532 q 281 602 317 602 q 178 503 239 602 q 85 314 125 420 q 49 151 49 216 q 55 119 49 130 q 75 109 61 109 q 185 195 118 109 q 321 429 272 305 l 324 436 q 381 542 347 492 l 376 547 l 346 532 m 525 684 l 538 678 l 360 246 q 292 74 347 214 q 202 -188 202 -161 q 205 -203 202 -196 l 221 -208 l 239 -205 l 263 -197 l 259 -221 q 46 -340 100 -340 q 31 -335 36 -340 l 27 -318 q 103 -119 27 -305 l 235 204 l 228 205 q 99 56 176 132 q -58 -46 -4 -46 q -100 0 -92 -46 q -102 38 -102 14 q -54 257 -102 140 q 5 374 -32 311 q 155 564 73 488 q 236 628 195 602 q 379 682 321 682 q 416 668 401 682 q 450 623 431 657 l 525 684 z "},"r":{"ha":437,"x_min":-73,"x_max":428,"o":"m 53 582 l 151 640 q 197 660 184 660 q 214 649 207 660 q 221 612 221 636 q 218 574 221 590 l 214 549 q 196 467 207 505 l 201 463 q 307 628 261 571 q 379 678 348 678 q 428 621 428 678 q 343 414 428 549 l 328 421 l 339 460 l 342 478 q 309 524 342 524 q 176 371 245 524 q 124 236 154 322 q 87 102 87 132 q 111 74 87 79 l 130 81 l 165 104 l 167 75 q -35 -49 27 -49 q -61 -36 -50 -49 q -73 -4 -73 -25 q -56 61 -73 18 l 22 270 q 54 351 35 299 q 76 424 59 365 q 93 518 93 483 q 85 553 93 541 q 56 570 75 564 l 53 582 z "},"s":{"ha":469,"x_min":-96,"x_max":444,"o":"m 336 421 l 319 427 l 334 457 l 338 482 q 304 547 338 524 q 231 568 273 568 q 161 548 195 568 q 124 490 124 524 q 144 445 124 468 q 234 374 165 419 l 246 366 q 328 256 328 311 q 282 150 328 212 q 242 99 260 120 q 129 -10 177 21 q 33 -41 81 -41 q -48 -16 -13 -41 q -96 52 -84 9 q 45 235 -50 136 l 62 227 q 28 156 28 183 q 124 81 28 81 q 197 100 163 81 q 239 157 239 122 q 146 258 239 203 l 140 262 q 59 332 87 294 q 35 401 35 365 q 49 457 35 431 q 95 524 64 486 q 327 669 216 669 q 399 649 361 669 q 444 593 444 625 q 417 542 444 585 q 336 421 379 481 z "},"t":{"ha":399,"x_min":-47,"x_max":427,"o":"m 221 808 l 292 839 l 366 881 l 330 774 l 278 640 l 427 640 l 343 579 l 256 581 q 166 323 224 473 q 107 136 107 172 q 134 87 107 94 q 182 140 151 104 l 221 201 l 241 170 q 110 9 178 74 q 12 -49 50 -49 q -35 -15 -18 -49 q -47 45 -47 11 q 28 289 -47 100 l 52 349 l 75 410 q 112 505 90 446 q 124 546 122 533 q 113 572 124 560 q 70 603 102 583 l 121 642 l 172 639 q 183 688 179 677 q 200 739 188 700 l 221 808 z "},"u":{"ha":611,"x_min":-79,"x_max":582,"o":"m 460 640 l 521 653 l 578 667 l 582 663 q 422 288 479 431 q 367 114 367 147 q 406 73 367 73 q 428 75 420 73 l 457 82 l 457 61 q 261 -47 309 -47 q 232 -33 245 -47 q 220 4 223 -21 q 302 277 220 96 l 294 278 q -35 -43 62 -43 q -68 -31 -56 -43 q -79 1 -79 -22 q -77 25 -79 14 q -55 102 -74 52 q -37 147 -50 115 l -12 210 q 92 518 92 466 q 61 546 92 546 l 49 545 l 44 560 q 158 645 111 616 q 228 674 205 674 q 250 665 242 674 q 257 640 257 656 q 242 574 257 617 q 225 524 236 555 q 200 460 224 519 l 174 393 q 85 147 85 170 l 89 131 q 103 125 93 125 q 311 349 176 125 q 460 640 411 515 z "},"v":{"ha":477,"x_min":-26,"x_max":531,"o":"m 103 632 q 220 685 161 649 l 233 692 l 239 690 l 241 685 l 196 575 q 128 366 154 473 q 110 231 110 290 q 147 136 110 141 q 188 160 164 136 q 213 188 196 167 q 243 227 240 222 q 332 393 298 306 q 367 522 367 480 q 353 567 367 548 q 310 592 346 577 l 381 640 l 444 689 l 464 677 l 531 637 q 430 492 479 600 l 413 454 q 204 104 327 266 q 42 -43 92 -43 q -26 124 -26 -43 q 7 363 -26 230 q 103 632 38 488 z "},"w":{"ha":753,"x_min":-35,"x_max":799,"o":"m 68 629 q 208 686 149 654 l 227 693 l 231 692 l 224 665 l 212 629 q 124 217 124 372 q 147 175 124 175 q 282 368 217 175 q 342 620 330 512 q 431 664 372 632 l 477 689 l 482 688 l 484 684 l 477 653 q 421 239 421 403 q 439 175 421 175 q 478 210 452 175 q 524 285 488 226 q 571 361 542 314 q 637 525 637 471 q 583 587 637 566 l 707 689 l 758 664 l 799 637 q 674 460 764 610 l 583 307 q 400 39 502 173 q 309 -49 333 -49 q 288 -42 293 -49 q 282 -18 283 -36 l 290 117 l 313 335 l 307 336 q 169 116 253 232 q -12 -49 50 -49 q -29 -38 -22 -49 q -35 -9 -35 -24 q 9 241 -35 23 q 68 629 51 451 z "},"x":{"ha":514,"x_min":-195,"x_max":574,"o":"m 102 642 l 163 659 l 241 685 q 175 387 175 521 l 175 350 l 179 309 q 445 653 250 376 l 509 665 l 574 684 q 420 496 507 593 q 191 254 317 382 q 249 102 212 152 q 334 53 288 49 l 350 54 l 378 60 l 379 46 q 180 -39 237 -39 q 134 4 159 -39 q 77 147 117 32 q -136 -25 -52 30 l -195 -25 q -87 56 -144 7 q -2 132 -61 77 q 61 191 35 166 l 47 271 l 43 350 q 58 493 40 401 q 102 642 73 569 z "},"y":{"ha":582,"x_min":-119,"x_max":592,"o":"m 39 562 q 164 661 111 625 q 225 690 206 690 q 260 642 260 690 q 217 503 260 618 l 198 453 q 87 143 87 161 l 92 127 q 107 121 96 121 q 307 345 179 121 q 449 635 398 503 l 585 694 l 589 693 l 592 689 q 566 629 587 672 q 388 204 455 402 l 370 150 q 222 -164 293 -77 q 81 -280 169 -230 q -56 -330 -6 -330 q -119 -256 -119 -330 q -87 -170 -119 -216 q 7 -74 -57 -125 l 16 -78 l 0 -121 l -4 -159 q 50 -248 -4 -221 q 165 -87 109 -205 q 291 256 216 17 l 283 257 q 139 92 224 178 q -31 -31 20 -31 q -66 24 -66 -31 q -56 82 -66 44 q -17 193 -43 130 q 39 332 4 244 q 74 428 60 388 q 98 526 98 497 q 73 551 98 551 l 58 550 l 45 546 l 39 562 z "},"z":{"ha":509,"x_min":-135,"x_max":546,"o":"m 28 474 q 139 625 78 570 q 261 685 205 685 q 332 671 288 685 q 376 657 348 667 q 428 632 391 652 q 481 676 461 663 q 519 689 501 689 q 539 684 532 689 q 546 669 546 680 q 440 567 546 618 q 215 300 304 400 q 85 164 141 217 q 156 115 112 151 q 237 77 203 77 q 340 179 311 77 l 370 184 q 300 36 345 103 q 176 -56 239 -56 q 81 -3 138 -56 q -14 61 24 50 q -81 0 -45 27 q -124 -22 -109 -22 l -132 -20 l -135 -9 q -127 26 -135 1 q -115 58 -120 52 q -96 90 -111 64 q -45 161 -67 142 q 7 180 -22 180 l 18 179 l 38 178 q 184 336 113 250 q 349 550 261 431 l 334 547 l 314 545 q 243 558 295 545 q 155 572 191 572 l 146 572 l 134 571 l 113 535 l 94 490 l 28 474 z "},"{":{"ha":694,"x_min":121,"x_max":575,"o":"m 575 1028 l 575 992 q 450 956 484 992 q 416 812 416 920 l 416 717 q 387 526 416 579 q 228 431 349 456 q 386 335 347 408 q 416 144 416 280 l 416 49 q 450 -94 416 -58 q 575 -130 484 -130 l 575 -165 l 568 -165 q 366 -114 422 -165 q 309 70 309 -62 l 309 210 q 268 359 309 317 q 121 410 229 400 l 121 453 q 270 503 223 453 q 309 653 309 545 l 309 793 q 371 982 309 930 q 568 1028 427 1028 l 575 1028 z "},"|":{"ha":694,"x_min":298,"x_max":399,"o":"m 298 1061 l 399 1061 l 399 -328 l 298 -328 l 298 1061 z "},"}":{"ha":694,"x_min":119,"x_max":575,"o":"m 119 1028 l 127 1028 q 326 983 270 1028 q 388 793 388 932 l 388 653 q 427 505 388 545 q 575 453 466 464 l 575 410 q 427 360 472 410 q 388 210 388 318 l 388 70 q 332 -116 388 -66 q 127 -165 275 -165 l 119 -165 l 119 -130 q 246 -92 211 -130 q 279 49 279 -56 l 279 144 q 309 335 279 281 q 467 431 347 406 q 321 509 362 452 q 279 717 279 566 l 279 812 q 250 950 279 913 q 119 992 216 992 l 119 1028 z "},"~":{"ha":1157,"x_min":121,"x_max":1038,"o":"m 1038 522 l 1038 417 q 774 321 901 321 q 600 360 708 321 l 578 368 l 567 373 q 382 413 446 413 q 262 388 323 413 q 121 306 199 362 l 121 411 q 383 509 264 509 q 473 499 427 509 q 534 484 502 493 q 581 467 545 480 l 612 456 q 775 417 720 417 q 897 443 830 417 q 1038 522 964 469 z "},"†":{"ha":694,"x_min":132,"x_max":663,"o":"m 424 1023 l 578 1023 l 494 856 l 437 720 q 539 729 468 720 q 663 750 605 738 l 632 633 l 536 653 l 420 674 l 413 617 l 411 575 l 413 530 l 417 490 q 360 350 395 439 q 299 184 322 252 q 193 -174 256 58 l 154 -174 l 155 -170 l 216 153 q 265 490 265 417 q 300 546 274 505 q 350 635 317 575 q 368 674 358 652 l 289 663 l 132 633 l 164 750 q 267 732 187 745 q 387 720 350 720 q 410 873 399 789 l 422 975 q 424 1023 424 987 z "},"¢":{"ha":579,"x_min":45,"x_max":535,"o":"m 321 546 l 302 549 l 279 549 q 173 519 205 549 q 139 416 139 489 q 159 340 139 375 q 216 278 179 305 l 321 546 m 395 732 l 457 746 l 413 633 q 452 624 444 627 q 500 603 458 621 q 535 583 513 596 l 475 425 l 457 431 l 458 445 l 460 453 q 437 502 460 481 q 374 532 414 522 l 262 253 q 306 241 282 245 l 357 237 q 391 241 374 236 l 420 249 l 360 131 l 325 124 l 292 121 l 250 122 l 212 131 l 175 38 l 111 26 l 164 149 q 75 227 99 185 q 45 336 45 280 q 141 538 45 444 q 361 640 246 640 l 395 732 z "},"£":{"ha":758,"x_min":-61,"x_max":714,"o":"m 608 163 l 634 163 q 464 -56 591 -56 q 431 -53 442 -56 q 396 -45 415 -52 l 288 -5 l 229 20 q 102 60 136 60 l 92 58 l 78 57 q -38 -49 5 -49 q -56 -45 -49 -49 l -61 -31 q 86 100 -61 34 q 131 208 112 144 q 163 339 150 269 l 100 338 l 26 332 l 46 397 l 165 389 q 202 550 190 510 q 278 694 231 641 q 420 795 331 753 q 582 838 510 838 q 658 819 609 838 q 714 777 714 798 q 672 663 714 745 q 609 557 640 602 l 576 551 l 606 612 l 614 659 q 570 738 614 705 q 461 771 525 771 q 304 389 370 771 l 382 392 l 454 397 l 432 332 l 367 338 l 289 339 q 241 246 279 300 q 136 122 206 197 l 175 136 l 203 140 q 318 107 235 140 l 328 103 l 458 56 q 514 43 492 43 q 566 70 545 43 q 608 163 583 92 z "},"§":{"ha":694,"x_min":-38,"x_max":692,"o":"m 395 213 q 469 257 445 225 q 498 330 498 289 q 319 545 498 395 l 262 592 q 174 560 208 592 q 140 490 140 535 q 389 217 140 404 l 395 213 m 692 966 q 595 754 662 843 l 575 767 q 593 798 580 774 q 606 820 597 805 q 612 856 610 833 q 570 926 612 900 q 457 953 527 953 q 330 922 378 953 q 273 810 273 884 q 326 693 273 752 q 427 607 351 667 q 536 515 511 541 q 598 392 598 450 q 554 276 598 330 q 427 188 510 222 q 506 45 506 125 q 474 -70 506 -21 q 193 -243 361 -243 q 66 -221 125 -243 q -38 -156 9 -199 q -4 -46 -32 -107 q 25 10 13 -9 q 67 71 35 26 l 95 60 q 59 7 68 29 q 46 -35 51 -5 q 123 -142 46 -100 q 260 -178 188 -178 q 370 -140 326 -178 q 418 -35 418 -99 q 250 175 418 49 q 83 322 121 272 q 45 422 45 372 q 106 559 45 503 q 245 623 162 609 q 204 679 218 649 q 189 732 189 709 q 285 930 189 840 q 507 1021 380 1021 q 692 966 617 1021 z "},"•":{"ha":820,"x_min":208,"x_max":610,"o":"m 208 517 q 268 658 208 600 q 410 717 327 717 q 552 659 494 717 q 610 517 610 601 q 551 374 610 433 q 408 315 492 315 q 267 374 325 315 q 208 517 208 433 z "},"¶":{"ha":694,"x_min":45,"x_max":650,"o":"m 650 1003 l 650 945 l 568 945 l 568 0 l 493 0 l 493 945 l 374 945 l 374 0 l 298 0 l 298 531 q 115 600 191 531 q 45 767 45 663 q 123 944 45 880 q 311 1003 196 1003 l 650 1003 z "},"ß":{"ha":650,"x_min":-261,"x_max":628,"o":"m 113 536 q 278 850 193 767 q 405 938 322 894 q 549 986 496 986 q 628 895 628 986 q 425 583 628 711 l 446 583 q 536 555 510 583 q 564 468 564 531 l 560 424 q 549 370 558 402 q 460 170 519 260 q 395 85 428 121 q 307 4 362 50 q 178 -46 246 -46 q 127 -32 147 -46 q 107 4 108 -17 q 132 71 106 25 q 213 188 161 123 l 227 176 q 203 128 213 153 q 196 89 199 114 q 213 45 196 61 q 275 17 230 28 q 349 127 317 45 q 372 192 363 163 q 410 332 395 260 q 422 439 422 397 q 340 547 422 547 q 270 514 307 547 l 288 595 l 319 587 l 345 583 l 360 583 l 383 588 q 474 703 437 625 q 510 852 510 779 q 496 903 510 888 q 454 921 484 921 q 383 881 419 921 q 186 403 305 794 l 132 224 q 29 -70 73 28 q -140 -307 -45 -235 q -205 -335 -177 -335 q -261 -265 -261 -335 q -243 -189 -261 -231 q -197 -114 -224 -142 l -170 -104 l -186 -146 q -192 -185 -192 -164 q -176 -236 -192 -220 q -139 -256 -164 -256 q 7 178 -102 -206 l 81 439 l 0 439 l 113 536 z "},"´":{"ha":694,"x_min":368,"x_max":659,"o":"m 368 783 l 509 964 l 659 982 l 457 795 l 368 783 z "},"¨":{"ha":694,"x_min":260,"x_max":720,"o":"m 498 842 l 595 942 q 685 918 632 926 q 720 917 694 917 q 663 848 703 876 q 578 821 623 821 q 563 823 571 821 q 539 827 550 823 q 498 842 522 829 m 260 842 l 354 942 q 454 918 402 921 q 479 917 463 917 q 424 848 463 874 q 339 821 385 821 q 260 842 299 821 z "},"Æ":{"ha":1260,"x_min":-228,"x_max":1251,"o":"m 327 421 l 396 408 l 460 406 l 478 407 q 486 506 478 442 q 496 588 490 539 l 525 812 q 437 625 488 725 l 387 525 q 327 421 374 502 m 543 983 l 625 1013 l 697 1040 q 628 735 655 909 q 600 541 606 589 q 585 309 585 416 q 680 419 622 373 q 825 497 739 465 q 733 553 764 519 q 701 629 701 587 q 750 750 701 686 q 970 946 813 833 q 1036 989 1010 975 q 1112 1010 1076 1010 q 1210 979 1168 1010 q 1251 913 1251 949 q 1080 701 1251 825 l 1057 713 q 1126 806 1126 763 q 1092 868 1126 842 q 1010 895 1057 895 q 970 889 983 895 q 930 873 949 886 q 840 717 840 792 q 930 595 840 639 q 1089 559 1003 559 l 1101 559 l 1027 509 q 974 468 992 486 l 920 473 l 885 477 q 692 393 777 459 q 593 214 593 315 q 745 81 593 81 q 854 99 799 81 q 947 147 908 117 q 966 174 953 155 q 1011 256 994 217 q 1027 296 1017 269 l 1093 304 q 909 68 1022 161 q 636 -42 779 -42 q 505 17 547 -42 q 461 199 458 79 l 463 260 l 469 330 l 427 326 l 331 326 l 273 330 q -144 -147 -22 -147 q -204 -122 -180 -147 q -228 -54 -228 -97 q -188 93 -228 12 q -139 172 -172 125 q -70 260 -109 216 l -42 262 q -140 60 -140 142 q -125 16 -140 31 q -89 -2 -111 -2 q 233 334 3 -2 l 178 336 l 124 343 l 214 389 l 299 440 q 477 774 413 632 q 543 983 543 922 z "},"Ø":{"ha":932,"x_min":-43,"x_max":985,"o":"m 228 128 q 392 71 279 71 q 502 96 448 71 q 603 171 555 121 q 740 382 686 258 q 795 627 795 510 q 742 804 795 738 l 228 128 m 437 926 l 460 922 q 233 663 321 814 q 138 335 138 498 q 193 161 138 224 l 709 839 q 614 871 677 871 q 370 693 491 871 l 335 692 l 463 850 q 530 935 488 880 q 566 990 553 968 q 610 1007 591 1003 q 685 1014 641 1014 q 814 979 756 1014 l 924 1128 l 985 1128 l 850 951 q 917 848 893 909 q 939 725 939 790 q 863 427 939 572 q 642 153 786 279 q 254 -46 412 -46 q 124 -14 201 -46 l 18 -155 l -43 -155 l 82 13 q 17 100 40 41 q -5 236 -5 159 q 129 633 -5 440 q 437 926 246 802 z "},"¥":{"ha":758,"x_min":-41,"x_max":819,"o":"m 323 310 l 332 310 l 396 407 l 313 407 l 323 310 m 253 -26 q 178 -36 218 -26 l 102 -54 l 235 265 l -41 265 l -29 310 l 233 310 l 226 356 l 216 407 l 1 407 l 13 452 l 209 452 l 189 577 q 127 722 166 722 q 98 717 113 722 l 58 697 l 54 707 l 94 741 q 225 829 201 829 q 293 599 269 829 l 309 452 l 429 452 l 541 612 l 670 791 l 739 812 l 819 832 q 536 496 790 812 l 500 452 l 713 452 l 699 408 l 465 408 l 424 355 l 388 310 l 674 310 l 661 266 l 353 265 l 253 -26 z "},"ª":{"ha":406,"x_min":-83,"x_max":378,"o":"m 245 893 q 222 929 236 916 q 191 942 207 942 q 132 890 171 942 q 65 766 96 842 q 32 629 32 684 q 50 592 32 592 q 185 735 96 592 q 220 807 190 743 q 245 859 227 823 l 269 904 l 265 907 l 245 893 m 300 616 l 303 593 q 156 497 212 497 q 136 507 143 497 q 128 532 128 515 q 178 686 128 585 l 174 688 q 42 547 111 606 q -52 494 -20 494 q -83 549 -83 494 q -63 651 -83 591 q -12 767 -43 711 q 19 817 9 804 q 54 860 28 830 q 159 954 113 927 q 205 978 185 970 q 270 998 245 994 q 299 983 283 998 q 323 954 315 974 q 353 970 336 958 l 372 981 l 376 979 l 378 975 q 372 961 374 967 q 354 924 367 950 l 315 839 q 289 778 303 812 q 237 604 237 654 l 242 588 q 253 582 246 582 q 274 591 261 582 l 300 616 z "},"º":{"ha":376,"x_min":-61,"x_max":350,"o":"m 208 1007 l 228 1004 q 99 852 151 938 q 40 665 40 754 q 110 581 40 581 q 130 583 123 581 l 151 592 q 223 739 195 657 q 250 871 250 820 q 243 909 250 893 q 220 922 236 922 l 208 921 l 196 914 l 191 921 l 310 1015 q 340 992 331 1014 q 350 930 350 971 q 314 781 350 862 q 217 632 275 694 q 16 492 84 492 q -61 593 -61 492 q 13 803 -61 689 q 208 1007 87 917 z "},"æ":{"ha":701,"x_min":-111,"x_max":709,"o":"m 396 425 l 422 418 l 454 416 l 465 416 l 489 418 q 560 536 560 474 q 524 583 560 578 l 506 579 l 502 578 q 396 425 431 521 m 325 530 q 253 600 301 600 q 221 583 239 600 q 175 526 198 562 q 86 347 126 452 q 42 153 42 230 q 48 114 42 127 q 67 100 54 100 q 146 160 94 100 q 246 304 195 216 q 295 411 260 330 q 357 546 314 456 l 354 550 l 325 530 m 515 213 l 574 217 q 466 50 546 137 q 302 -49 375 -49 q 224 -2 252 -49 q 201 90 201 37 l 201 117 q 207 156 201 124 q 225 236 213 193 q 96 73 174 156 q -68 -39 -9 -39 q -111 38 -111 -39 q -14 351 -111 171 q 71 482 23 421 q 167 581 112 534 q 247 638 200 608 q 334 678 309 678 q 400 614 355 678 l 439 645 l 457 654 l 463 652 l 466 648 l 460 624 l 438 567 q 654 669 570 669 q 709 621 703 669 q 678 545 709 591 q 477 382 616 450 q 417 360 459 373 q 367 351 389 351 q 345 274 355 319 q 336 188 336 233 q 359 96 336 128 q 422 64 382 64 l 433 64 l 442 66 q 484 125 467 90 q 503 168 492 142 q 515 213 507 180 z "},"ø":{"ha":502,"x_min":-139,"x_max":543,"o":"m 338 494 l 70 118 q 143 75 94 75 q 201 100 178 75 q 338 494 316 261 m 278 692 l 304 688 q 119 448 190 581 q 47 213 43 304 l 49 184 l 52 153 l 331 550 q 304 576 326 576 l 285 572 l 261 560 l 253 570 l 413 705 l 431 693 l 500 791 l 543 791 l 452 661 q 465 618 462 644 q 467 599 465 608 q 322 200 467 389 q 186 54 266 126 q 21 -45 79 -45 l -4 -41 l -31 -28 l -96 -122 l -139 -122 l -57 -4 q -78 52 -68 14 q -82 102 -82 67 q 35 432 -82 258 q 278 692 132 577 z "},"¿":{"ha":675,"x_min":-35,"x_max":591,"o":"m 591 753 l 456 675 l 424 714 l 370 774 l 494 849 q 524 824 511 836 q 591 753 570 781 m 414 612 l 454 564 l 490 506 q 318 405 384 448 q 203 315 253 361 q 111 159 111 231 q 144 79 111 109 q 236 50 178 50 q 363 103 316 50 q 396 265 363 184 q 450 335 425 335 q 477 264 477 335 q 427 124 477 187 q 288 7 372 55 q 115 -43 197 -43 q -16 21 25 -43 q -35 90 -35 51 q 105 310 -35 201 q 338 453 169 360 l 311 494 l 283 536 l 414 612 z "},"¡":{"ha":489,"x_min":-31,"x_max":444,"o":"m 319 603 l 115 -9 l -31 -43 l 242 575 l 319 603 m 444 774 l 309 694 l 266 747 l 222 795 l 347 868 l 397 825 l 444 774 z "},"ƒ":{"ha":758,"x_min":-136,"x_max":728,"o":"m 671 617 l 643 612 l 657 649 l 661 680 q 630 751 661 722 q 555 779 599 779 l 550 779 q 417 463 474 728 l 477 464 l 557 467 l 535 406 l 408 414 l 401 383 q 210 -188 304 -65 q 74 -311 149 -267 q -75 -357 -4 -357 q -136 -314 -136 -357 q -39 -100 -136 -223 l -14 -93 q -43 -146 -22 -103 q -52 -200 -52 -171 q -24 -267 -52 -240 q 46 -293 5 -293 q 139 -135 94 -266 q 172 -16 148 -110 q 216 168 183 27 l 273 414 l 142 403 l 161 467 l 207 463 l 257 461 l 285 461 q 354 660 323 606 q 438 755 384 713 q 559 819 492 797 q 684 840 625 840 q 728 799 728 840 q 671 617 728 715 z "},"«":{"ha":550,"x_min":-31,"x_max":456,"o":"m 307 379 l 299 366 l 296 349 q 324 283 296 328 q 359 236 334 269 q 409 176 375 215 l 321 93 q 271 161 305 115 q 228 224 239 205 q 192 304 192 285 q 204 332 192 313 l 242 374 l 436 564 l 456 543 l 307 379 m 86 379 l 78 366 l 74 349 q 186 176 74 307 l 100 93 q 7 224 46 158 q -31 304 -31 286 q -18 332 -31 313 l 20 374 l 216 564 l 235 543 l 86 379 z "},"»":{"ha":550,"x_min":-31,"x_max":456,"o":"m 118 279 l 125 292 l 130 309 q 18 482 130 354 l 104 564 q 198 433 162 494 q 234 353 234 373 q 208 307 234 334 q 185 285 206 305 l -12 93 l -31 115 l 118 279 m 341 279 l 348 292 l 352 309 q 241 482 352 354 l 327 564 q 421 432 390 485 q 456 353 456 374 q 444 325 456 343 q 406 285 437 315 l 212 93 l 192 115 l 341 279 z "},"…":{"ha":1389,"x_min":-40,"x_max":1107,"o":"m -40 53 l 95 132 l 138 79 l 181 32 l 56 -42 q 31 -22 42 -32 q 5 1 14 -5 l -40 53 m 422 53 l 557 132 l 600 79 l 644 32 l 518 -42 q 493 -22 505 -32 q 468 1 477 -5 l 422 53 m 886 53 l 1021 132 l 1065 79 l 1107 32 l 982 -42 q 957 -22 968 -32 q 932 1 941 -5 l 886 53 z "},"Œ":{"ha":1518,"x_min":-5,"x_max":1520,"o":"m 437 926 l 460 922 q 236 667 320 817 q 147 340 147 507 q 214 152 147 224 q 397 77 282 77 q 600 168 513 77 q 738 383 684 256 q 793 627 793 515 q 755 792 793 726 q 617 873 709 873 q 493 831 551 873 q 370 693 435 788 l 335 692 l 463 850 q 530 935 488 880 q 566 990 553 968 q 610 1007 591 1003 q 685 1014 641 1014 q 866 933 796 1014 q 935 725 935 853 q 812 338 935 536 q 945 429 876 390 q 1095 497 1011 467 q 1000 553 1030 520 q 978 588 984 570 q 970 629 970 606 q 1050 787 970 700 q 1187 907 1092 831 q 1239 946 1211 926 q 1305 989 1281 976 q 1381 1010 1345 1010 q 1478 980 1436 1010 q 1520 913 1520 951 q 1349 701 1520 824 l 1325 713 q 1377 759 1362 740 q 1394 806 1392 777 q 1360 868 1394 842 q 1278 895 1325 895 q 1238 889 1251 895 q 1199 873 1217 886 q 1132 792 1158 837 q 1109 717 1109 753 q 1198 594 1109 638 q 1357 559 1270 559 l 1370 559 l 1300 511 l 1243 468 l 1200 474 l 1167 477 q 1116 471 1148 478 q 1080 463 1094 467 q 1047 450 1072 460 q 915 363 972 420 q 846 227 846 296 q 907 131 846 163 q 1025 104 957 104 q 1215 147 1152 104 q 1263 222 1246 187 q 1282 260 1265 228 q 1296 296 1286 268 l 1361 304 q 1180 69 1291 161 q 909 -38 1052 -38 q 761 13 820 -38 q 701 138 701 63 l 701 156 q 707 180 701 162 l 725 233 q 256 -46 451 -46 q 65 31 136 -46 q -5 236 -5 108 q 129 633 -5 440 q 437 926 247 803 z "},"œ":{"ha":746,"x_min":-82,"x_max":751,"o":"m 440 425 l 467 418 l 498 416 l 528 418 q 585 477 562 439 q 604 536 604 510 q 595 568 604 555 q 568 583 587 581 l 560 582 l 545 578 q 484 510 513 551 q 440 425 455 469 m 201 100 q 253 191 234 152 q 289 282 269 222 q 322 446 322 379 q 299 535 322 504 q 231 567 275 567 l 203 563 l 175 550 q 92 384 126 474 q 54 204 54 281 q 79 117 54 150 q 146 83 104 83 l 174 87 l 201 100 m 557 213 l 617 217 q 509 50 589 137 q 345 -49 418 -49 q 272 -9 298 -49 q 245 100 245 31 l 245 110 q 21 -45 95 -45 q -59 5 -31 -45 q -82 102 -82 46 q 41 435 -82 263 q 198 605 115 539 q 334 671 281 671 q 414 627 387 671 q 437 532 437 589 l 437 518 q 553 619 484 576 q 697 669 633 669 q 736 657 721 669 q 751 621 751 643 q 645 461 751 549 q 583 418 621 441 q 521 382 563 406 q 463 360 500 372 q 411 351 436 351 q 379 188 379 277 q 465 64 379 64 l 478 64 l 486 66 q 526 124 510 89 q 545 165 533 139 q 557 213 549 178 z "},"–":{"ha":694,"x_min":-16,"x_max":711,"o":"m 17 366 l 711 366 l 678 299 l -16 299 l 17 366 z "},"—":{"ha":1389,"x_min":-16,"x_max":1406,"o":"m 1406 366 l 1373 299 l -16 299 l 17 366 l 1406 366 z "},"“":{"ha":604,"x_min":180,"x_max":639,"o":"m 437 625 q 406 725 406 674 q 479 903 406 814 q 629 1029 538 976 l 639 1013 q 515 815 515 916 q 536 747 515 781 q 555 717 543 736 l 437 625 m 213 625 q 180 725 180 673 q 254 903 180 814 q 404 1029 314 977 l 414 1013 q 321 915 351 964 q 290 815 290 865 q 310 746 290 785 q 330 717 315 735 l 213 625 z "},"”":{"ha":604,"x_min":168,"x_max":631,"o":"m 463 938 l 585 1027 q 631 906 631 968 q 555 745 631 818 q 400 650 495 688 l 393 668 q 486 743 448 696 q 521 825 521 785 q 507 873 521 848 q 463 938 496 894 m 237 938 l 360 1027 q 406 906 406 966 q 330 745 406 818 q 175 650 270 688 l 168 668 q 261 743 223 698 q 296 825 296 785 q 282 872 296 842 q 237 938 267 900 z "},"‘":{"ha":379,"x_min":180,"x_max":414,"o":"m 213 625 q 180 725 180 673 q 254 903 180 814 q 404 1029 314 977 l 414 1013 q 321 914 353 964 q 290 815 290 864 q 310 746 290 783 q 330 717 315 736 l 213 625 z "},"’":{"ha":379,"x_min":168,"x_max":406,"o":"m 237 938 l 360 1027 q 406 906 406 966 q 330 745 406 818 q 175 650 270 688 l 168 668 q 261 743 223 698 q 296 825 296 785 q 282 872 296 842 q 237 938 267 900 z "},"¤":{"ha":842,"x_min":54,"x_max":789,"o":"m 422 807 q 278 747 339 807 q 216 602 216 687 q 278 456 216 517 q 422 395 340 395 q 568 455 509 395 q 628 602 628 515 q 568 747 628 687 q 422 807 508 807 m 110 966 l 249 827 q 421 885 326 885 q 513 869 468 885 q 595 827 557 854 l 734 966 l 789 911 l 650 771 q 692 692 679 735 q 706 600 706 642 q 650 429 706 500 l 789 290 l 734 235 l 595 374 q 422 315 514 315 q 329 331 374 315 q 249 374 284 347 l 110 235 l 54 290 l 194 429 q 151 509 163 469 q 138 600 138 551 q 151 690 138 647 q 194 771 164 732 l 54 911 l 110 966 z "},"‹":{"ha":328,"x_min":-31,"x_max":235,"o":"m 86 379 l 78 366 l 74 349 q 186 176 74 307 l 100 93 q 7 224 46 158 q -31 304 -31 286 q -18 332 -31 313 l 20 374 l 216 564 l 235 543 l 86 379 z "},"›":{"ha":328,"x_min":-29,"x_max":235,"o":"m 119 279 l 128 293 l 131 310 q 18 482 131 358 l 104 566 q 156 500 122 545 q 199 433 170 481 q 235 354 235 374 q 222 327 235 345 q 185 286 214 314 l -10 95 l -29 117 l 119 279 z "},"‡":{"ha":694,"x_min":-1,"x_max":665,"o":"m 375 674 q 331 669 358 672 q 136 633 248 659 l 168 750 q 271 732 194 744 q 389 720 357 720 q 413 873 405 809 l 425 975 q 427 1023 427 987 l 582 1023 l 498 856 l 442 720 q 542 729 473 720 q 665 750 608 739 l 636 633 l 429 674 l 416 612 l 411 564 l 413 507 l 418 456 q 364 361 389 415 q 336 294 353 338 q 304 207 315 241 q 404 217 326 207 q 528 237 472 226 l 498 121 l 407 140 l 289 163 q 256 -174 256 3 l 115 -174 l 188 7 l 237 163 q 181 156 199 159 q 121 144 164 153 q -1 121 83 138 l 31 237 q 82 227 57 231 q 138 218 92 225 q 252 207 218 207 q 262 288 255 234 l 267 376 l 265 416 l 265 456 q 328 554 299 496 q 375 674 356 612 z "},"·":{"ha":379,"x_min":82,"x_max":243,"o":"m 82 397 q 106 454 82 431 q 163 478 130 478 q 220 454 196 478 q 243 397 243 431 q 219 341 243 366 q 163 317 195 317 q 106 341 131 317 q 82 397 82 366 z "},"‚":{"ha":379,"x_min":-85,"x_max":153,"o":"m -14 41 l 109 130 q 143 71 130 102 q 153 10 153 39 q -78 -246 153 -152 l -85 -229 q -1 -165 -37 -203 q 43 -71 43 -117 q 31 -22 43 -47 q -14 41 20 1 z "},"„":{"ha":604,"x_min":-85,"x_max":378,"o":"m -14 41 l 109 130 q 143 71 130 102 q 153 10 153 39 q -78 -246 153 -152 l -85 -229 q -1 -165 -37 -203 q 43 -71 43 -117 q -14 41 43 -27 m 212 41 l 334 130 q 378 10 378 75 q 147 -246 378 -152 l 140 -229 q 269 -71 269 -156 q 212 41 269 -28 z "},"‰":{"ha":1556,"x_min":74,"x_max":1431,"o":"m 1129 -46 q 1025 6 1069 -46 q 981 134 981 58 q 1080 358 981 247 q 1282 469 1180 469 q 1389 425 1347 469 q 1431 310 1431 381 q 1328 66 1431 182 q 1129 -46 1229 -46 m 1173 414 q 1098 311 1126 372 q 1069 192 1069 250 q 1116 63 1069 113 q 1235 14 1162 14 l 1242 14 q 1314 122 1286 57 q 1341 250 1341 187 q 1295 366 1341 317 q 1182 414 1249 414 l 1173 414 m 648 -46 q 541 5 585 -46 q 497 134 497 56 q 597 358 497 248 q 800 469 698 469 q 906 426 864 469 q 947 310 947 382 q 921 186 947 249 q 842 64 894 123 q 746 -18 792 8 q 648 -46 697 -46 m 690 414 q 617 311 648 377 q 594 252 600 274 q 587 192 587 224 q 634 63 587 112 q 753 14 681 14 l 758 14 q 830 123 802 58 q 859 250 859 189 q 812 366 859 317 q 700 414 766 414 l 690 414 m 157 -45 l 806 824 l 856 824 l 204 -45 l 157 -45 m 227 315 q 117 367 161 315 q 74 494 74 416 q 172 720 74 610 q 375 832 273 832 q 484 785 443 832 q 524 672 524 741 q 420 427 524 547 q 227 315 323 315 m 265 775 q 191 671 219 733 q 163 553 163 610 q 209 425 163 475 q 328 375 254 375 l 335 375 q 406 484 378 418 q 433 611 433 551 q 388 728 433 681 q 275 775 342 775 l 265 775 z "},"ˆ":{"ha":694,"x_min":253,"x_max":654,"o":"m 467 1021 l 554 1021 l 654 815 l 600 783 l 503 947 l 317 783 l 253 817 l 467 1021 z "},"˜":{"ha":694,"x_min":290,"x_max":688,"o":"m 663 972 l 688 963 q 625 863 654 890 q 559 835 595 833 l 532 836 l 509 842 l 432 864 l 408 869 l 392 872 q 356 860 372 872 q 318 819 343 852 l 290 832 q 416 956 356 956 l 431 954 l 454 949 l 542 925 l 568 920 l 581 918 q 663 972 631 918 z "},"¯":{"ha":694,"x_min":294,"x_max":681,"o":"m 315 941 l 681 941 l 660 846 l 294 846 l 315 941 z "},"ˉ":{"ha":694,"x_min":294,"x_max":681,"o":"m 315 941 l 681 941 l 660 846 l 294 846 l 315 941 z "},"¸":{"ha":694,"x_min":57,"x_max":336,"o":"m 217 0 l 260 0 l 199 -83 l 210 -82 l 239 -78 q 308 -97 280 -78 q 336 -144 336 -117 q 270 -240 336 -191 q 135 -289 203 -289 q 101 -284 114 -289 q 82 -278 89 -279 q 57 -262 70 -273 l 83 -225 q 118 -245 93 -233 q 165 -250 136 -250 q 227 -232 199 -250 q 255 -197 255 -217 q 228 -161 255 -178 q 163 -146 198 -144 l 142 -147 l 125 -153 l 111 -143 l 217 0 z "},"Š":{"ha":726,"x_min":-45,"x_max":853,"o":"m 592 654 l 556 659 q 609 713 593 690 q 623 766 623 738 q 570 849 623 821 q 468 872 528 872 q 252 711 252 872 q 408 546 252 625 l 452 524 q 549 450 521 488 q 574 359 574 416 q 338 17 574 193 q 244 -29 301 -10 q 142 -47 187 -47 q 15 -6 75 -47 q -45 64 -45 35 q -3 178 -45 96 q 106 343 46 271 l 156 347 q 94 281 115 315 q 71 216 71 244 q 126 133 71 166 q 262 100 180 100 q 410 127 361 100 q 474 252 474 162 q 425 348 474 307 q 327 404 397 372 q 203 477 239 446 q 148 602 148 527 q 176 714 148 653 q 257 836 203 773 q 567 1010 407 1010 q 695 963 640 1010 q 749 877 749 916 q 683 761 749 848 q 592 654 629 691 m 639 1121 l 551 1121 l 452 1326 l 506 1358 l 603 1195 l 789 1358 l 853 1325 l 639 1121 z "},"™":{"ha":1142,"x_min":163,"x_max":971,"o":"m 530 978 l 659 978 l 751 713 l 849 978 l 971 978 l 971 961 l 951 960 q 929 950 939 959 q 922 924 925 943 l 922 669 q 951 633 922 635 l 971 632 l 971 612 l 808 612 l 808 632 l 829 633 q 852 643 844 636 q 859 669 859 654 l 859 932 l 742 611 l 728 611 l 611 934 l 611 669 q 619 644 611 652 q 640 633 627 636 l 663 632 l 663 612 l 530 612 l 530 632 l 551 633 q 574 643 567 636 q 581 669 578 652 l 581 921 q 573 947 581 939 q 551 957 566 955 l 530 960 l 530 978 m 170 978 l 471 978 l 478 854 l 460 854 q 453 900 460 882 q 432 932 446 918 q 368 957 411 957 l 357 957 l 357 669 q 364 645 357 652 q 385 633 370 636 l 407 632 l 407 612 l 235 612 l 235 632 l 256 633 q 278 643 271 636 q 285 669 285 654 l 285 957 l 274 957 q 207 932 231 957 q 180 854 188 912 l 163 854 l 170 978 z "},"š":{"ha":469,"x_min":-96,"x_max":607,"o":"m 336 421 l 318 427 l 334 457 l 338 482 q 304 547 338 524 q 231 568 273 568 q 161 547 195 568 q 123 490 123 524 q 143 445 123 468 q 175 416 152 435 q 233 374 203 393 l 246 366 q 328 256 328 314 q 282 150 328 210 q 242 99 270 134 q 129 -9 178 22 q 33 -41 81 -41 q -49 -16 -13 -41 q -96 52 -85 9 q -38 140 -72 96 q 45 235 -6 182 l 61 227 q 28 156 28 183 q 54 102 28 123 q 124 81 81 81 q 197 99 163 81 q 239 157 239 121 q 146 258 239 203 l 139 262 q 58 332 86 294 q 35 401 35 365 q 48 457 35 431 q 94 524 64 488 q 327 669 217 669 q 399 649 361 669 q 444 593 444 625 q 417 542 444 585 q 336 421 379 481 m 393 783 l 306 783 l 205 989 l 260 1021 l 357 857 l 543 1021 l 607 987 l 393 783 z "},"Ÿ":{"ha":868,"x_min":78,"x_max":970,"o":"m 475 285 q 359 113 423 197 q 217 -29 270 -5 q 203 -75 206 -57 l 198 -117 q 199 -144 198 -135 q 203 -163 203 -157 q 221 -205 210 -186 q 479 283 347 -130 l 475 285 m 78 856 l 128 892 q 338 1023 311 1023 q 374 928 374 1023 q 318 565 374 800 q 262 232 262 330 q 275 171 262 195 q 311 147 289 147 q 568 503 394 147 q 756 938 670 714 l 853 974 l 970 1019 q 905 922 941 983 q 852 824 900 914 q 808 741 837 796 q 602 296 718 568 q 458 -24 491 39 q 397 -107 441 -57 q 354 -153 385 -122 q 296 -204 337 -169 q 156 -296 195 -290 q 132 -277 143 -296 q 124 -227 124 -257 q 142 -139 124 -186 q 202 -28 161 -92 q 141 13 162 -16 q 120 86 117 46 l 124 142 l 138 216 l 142 232 q 229 767 229 576 q 167 859 229 859 q 106 844 143 859 q 82 832 96 840 l 78 856 m 703 1179 l 799 1279 q 820 1272 808 1275 q 862 1261 840 1266 q 924 1255 888 1255 q 867 1185 907 1213 q 782 1158 827 1158 q 767 1160 775 1158 q 715 1173 746 1160 q 703 1179 709 1176 m 465 1179 l 559 1279 q 579 1272 569 1275 q 659 1256 622 1258 q 684 1255 671 1255 q 628 1185 667 1212 q 543 1158 589 1158 q 465 1179 505 1158 z "}," ":{"ha":758,"x_min":0,"x_max":0,"o":""},"¦":{"ha":694,"x_min":298,"x_max":399,"o":"m 298 277 l 399 277 l 399 -237 l 298 -237 l 298 277 m 298 971 l 399 971 l 399 457 l 298 457 l 298 971 z "},"©":{"ha":1142,"x_min":89,"x_max":1053,"o":"m 762 745 l 786 745 l 787 531 l 758 531 q 568 715 717 715 q 448 652 488 715 q 406 464 406 587 q 450 272 406 338 q 582 205 494 205 q 687 235 641 205 q 772 325 732 264 l 799 307 q 564 163 717 163 q 364 250 445 163 q 285 454 285 334 q 363 662 285 577 q 563 747 441 747 q 664 725 608 747 l 718 703 q 762 745 754 703 m 572 885 q 274 758 400 885 q 151 460 151 635 q 183 298 151 374 q 275 163 214 222 q 411 68 342 98 q 490 46 439 57 q 571 38 530 38 q 868 161 749 38 q 992 460 992 290 q 871 760 992 639 q 572 885 746 885 m 572 943 q 754 906 662 943 q 910 804 844 870 q 1053 460 1053 663 q 911 119 1053 268 q 756 15 848 53 q 571 -22 665 -22 q 387 15 475 -22 q 231 119 299 52 q 170 193 201 149 q 125 275 144 229 q 89 460 89 366 q 230 800 89 656 q 572 943 371 943 z "},"¬":{"ha":1157,"x_min":172,"x_max":985,"o":"m 172 583 l 985 583 l 985 243 l 892 243 l 892 489 l 172 489 l 172 583 z "},"­":{"ha":370,"x_min":-42,"x_max":289,"o":"m 155 279 l 96 285 l 54 286 q -33 274 5 288 l -42 282 l 93 385 l 153 379 l 204 378 q 239 380 226 377 q 281 391 260 382 l 289 382 l 155 279 z "},"−":{"ha":370,"x_min":-42,"x_max":289,"o":"m 155 279 l 96 285 l 54 286 q -33 274 5 288 l -42 282 l 93 385 l 153 379 l 204 378 q 239 380 226 377 q 281 391 260 382 l 289 382 l 155 279 z "},"®":{"ha":1142,"x_min":89,"x_max":1053,"o":"m 500 489 l 519 488 l 543 488 q 693 604 693 488 q 660 684 693 654 q 568 713 627 713 q 500 665 500 713 l 500 489 m 317 742 l 587 742 q 743 706 684 742 q 801 610 801 669 q 608 469 801 503 q 707 417 672 452 q 754 330 740 385 l 762 285 q 800 225 772 225 q 832 248 820 225 q 843 314 843 273 l 873 314 l 873 302 q 828 199 873 228 q 766 184 803 184 q 675 224 693 184 q 659 300 659 252 q 653 366 659 347 q 519 460 626 460 l 500 460 l 500 293 q 517 246 500 260 q 581 227 532 231 l 581 196 l 317 196 l 317 227 q 380 243 364 227 q 399 293 399 257 l 399 643 q 376 696 399 682 q 317 711 360 708 l 317 742 m 572 885 q 274 758 400 885 q 151 460 151 635 q 183 298 151 374 q 274 163 214 222 q 410 68 339 98 q 489 46 438 56 q 571 38 528 38 q 732 70 656 38 q 867 162 807 101 q 959 300 927 222 q 990 460 990 377 q 869 762 990 642 q 572 885 745 885 m 572 943 q 916 799 773 943 q 1015 643 977 737 q 1053 456 1053 552 q 968 189 1053 313 q 751 12 884 64 q 564 -22 665 -22 q 387 16 478 -22 q 231 119 296 54 q 170 193 201 149 q 125 275 144 229 q 89 460 89 366 q 229 800 89 655 q 572 943 368 943 z "},"°":{"ha":457,"x_min":33,"x_max":424,"o":"m 229 924 q 136 886 175 924 q 97 793 97 848 q 136 699 97 738 q 229 660 174 660 q 321 699 282 660 q 360 793 360 738 q 322 886 360 849 q 229 924 285 924 m 229 987 q 367 930 310 987 q 424 792 424 873 q 367 653 424 710 q 228 597 310 597 q 89 654 145 597 q 47 717 62 682 q 33 792 33 750 q 91 930 33 873 q 229 987 149 987 z "},"±":{"ha":1157,"x_min":172,"x_max":985,"o":"m 172 115 l 985 115 l 985 19 l 172 19 l 172 115 m 531 808 l 627 808 l 627 578 l 985 578 l 985 483 l 627 483 l 627 253 l 531 253 l 531 483 l 172 483 l 172 578 l 531 578 l 531 808 z "},"²":{"ha":500,"x_min":-68,"x_max":450,"o":"m 374 397 l 387 395 l 290 292 l 28 319 l -64 293 l -68 302 l -52 319 q -12 363 -43 329 q 18 395 2 377 l 53 391 q 233 503 153 436 q 340 674 340 593 q 313 743 340 717 q 236 769 286 769 q 171 729 184 769 q 142 661 161 698 q 95 610 114 610 q 86 620 86 616 q 83 630 83 624 q 82 645 82 636 q 168 775 82 728 q 328 814 239 814 q 418 785 386 814 q 450 711 450 757 q 99 388 450 569 l 257 374 l 279 374 q 374 397 335 374 z "},"³":{"ha":500,"x_min":-9,"x_max":450,"o":"m 193 599 l 204 599 l 229 597 l 253 593 q 296 616 276 603 q 325 639 315 629 q 349 694 349 665 q 317 746 349 728 q 256 762 292 762 l 229 758 l 207 753 q 174 669 195 702 q 139 632 152 635 q 131 639 132 636 l 128 659 q 190 768 128 724 q 338 812 252 812 q 418 789 387 812 q 450 732 450 766 q 275 585 450 641 q 344 544 320 572 q 368 481 368 517 q 353 421 368 447 q 294 358 337 395 q 206 303 251 322 q 117 283 161 283 q 42 302 83 283 q -9 351 -7 323 q -4 360 -7 359 l 10 363 q 86 346 32 363 q 170 330 140 330 q 258 357 222 330 q 294 422 294 384 q 234 500 294 465 q 167 530 202 519 q 85 541 132 541 l 193 599 z "},"µ":{"ha":793,"x_min":-70,"x_max":755,"o":"m 113 132 q 70 -109 91 37 q -10 -285 44 -285 q -54 -269 -38 -285 q -70 -221 -70 -248 q -23 -33 -70 -188 q 53 253 27 134 l 127 600 l 240 600 l 162 228 l 159 188 q 188 115 157 146 q 270 87 217 87 q 429 242 396 87 l 506 600 l 623 600 l 535 188 l 532 153 q 550 103 530 123 q 602 85 567 85 q 657 102 631 85 q 696 149 686 120 l 714 199 q 741 236 727 235 q 751 231 750 233 l 755 217 q 738 122 755 186 q 722 89 732 107 q 576 -17 666 -17 q 492 21 523 -17 q 461 125 461 58 l 461 134 q 378 21 427 59 q 261 -17 328 -17 q 113 132 129 -17 z "},"μ":{"ha":793,"x_min":-70,"x_max":755,"o":"m 113 132 q 70 -109 91 37 q -10 -285 44 -285 q -54 -269 -38 -285 q -70 -221 -70 -248 q -23 -33 -70 -188 q 53 253 27 134 l 127 600 l 240 600 l 162 228 l 159 188 q 188 115 157 146 q 270 87 217 87 q 429 242 396 87 l 506 600 l 623 600 l 535 188 l 532 153 q 550 103 530 123 q 602 85 567 85 q 657 102 631 85 q 696 149 686 120 l 714 199 q 741 236 727 235 q 751 231 750 233 l 755 217 q 738 122 755 186 q 722 89 732 107 q 576 -17 666 -17 q 492 21 523 -17 q 461 125 461 58 l 461 134 q 378 21 427 59 q 261 -17 328 -17 q 113 132 129 -17 z "},"¹":{"ha":502,"x_min":86,"x_max":400,"o":"m 86 282 l 213 588 q 281 766 263 709 q 222 743 260 753 q 163 732 204 739 l 165 755 q 242 774 208 764 q 300 795 261 781 q 332 807 315 800 q 400 844 366 823 l 196 314 q 174 310 184 311 q 143 300 172 310 l 86 282 z "},"¼":{"ha":1187,"x_min":82,"x_max":1146,"o":"m 836 -31 l 920 150 l 774 150 l 742 147 l 681 146 l 1003 408 l 1045 450 l 1097 460 l 1146 473 l 1027 205 l 1048 204 l 1109 204 l 1145 205 l 1105 168 l 1085 144 l 1057 144 l 1002 149 l 937 -16 l 881 -21 l 836 -31 m 942 204 l 1028 400 l 994 371 l 971 351 l 795 208 l 942 204 m 246 -45 l 893 836 l 941 836 l 294 -45 l 246 -45 m 82 317 l 204 607 l 267 767 l 208 746 l 155 736 l 157 757 q 277 791 224 771 q 382 842 330 810 l 186 346 l 135 334 l 82 317 z "},"½":{"ha":1187,"x_min":82,"x_max":1139,"o":"m 1067 79 l 1078 77 l 987 -20 l 738 7 l 649 -18 l 645 -12 l 696 42 l 726 77 l 762 74 q 932 178 856 116 q 1035 338 1035 262 q 1008 402 1035 378 q 935 426 981 426 q 872 390 888 426 q 844 326 864 361 q 800 277 819 279 q 792 286 793 282 l 789 310 q 855 424 789 379 q 1023 468 921 468 q 1109 444 1079 468 q 1139 372 1139 419 q 803 70 1139 233 l 956 57 l 977 57 q 1025 62 1003 57 q 1067 79 1050 68 m 246 -45 l 893 836 l 941 836 l 294 -45 l 246 -45 m 82 317 l 204 607 l 267 767 l 208 746 l 155 736 l 157 757 q 277 791 224 771 q 382 842 330 810 l 186 346 l 135 334 l 82 317 z "},"¾":{"ha":1187,"x_min":-8,"x_max":1146,"o":"m 836 -31 l 920 150 l 774 150 l 742 147 l 681 146 l 1003 408 l 1045 450 l 1097 460 l 1146 473 l 1027 205 l 1048 204 l 1109 204 l 1145 205 l 1105 168 l 1085 144 l 1057 144 l 1002 149 l 937 -16 l 881 -21 l 836 -31 m 942 204 l 1028 400 l 994 371 l 971 351 l 795 208 l 942 204 m 246 -45 l 893 836 l 941 836 l 294 -45 l 246 -45 m 184 612 l 195 612 l 213 611 l 241 607 q 310 650 287 627 q 332 701 332 673 q 307 746 332 726 q 245 763 281 763 l 216 760 l 197 755 q 165 677 184 709 q 134 643 146 643 q 125 649 127 646 l 123 667 q 193 774 123 732 q 322 811 253 811 q 393 795 363 811 q 430 736 430 774 q 387 657 430 693 q 263 599 346 623 q 328 559 303 585 q 352 502 352 534 q 313 416 352 458 q 281 387 306 408 q 113 317 197 317 q 30 338 66 317 q -8 380 -5 360 l -4 389 l 9 392 q 77 376 23 392 q 163 360 133 360 q 247 386 212 360 q 281 446 281 411 q 226 519 281 487 q 81 557 163 557 l 184 612 z "},"À":{"ha":875,"x_min":-218,"x_max":793,"o":"m 336 421 l 406 408 l 469 406 l 488 407 q 506 588 488 447 l 535 812 q 484 696 514 764 q 446 621 473 673 q 336 421 391 513 m 553 983 l 635 1013 l 707 1040 q 641 751 666 907 q 606 408 606 536 l 652 410 l 713 418 l 666 387 l 617 361 l 599 357 l 595 282 l 593 225 q 602 155 592 177 q 627 135 610 136 q 665 156 641 134 q 713 214 689 177 l 720 186 q 500 -28 552 -28 q 467 -3 481 -28 q 452 60 449 26 l 459 161 l 478 330 l 435 326 l 342 326 l 282 330 q -135 -147 -11 -147 q -194 -122 -171 -147 q -218 -54 -218 -98 q -60 260 -218 85 l -32 262 q -130 60 -130 134 q -117 16 -130 31 q -79 -1 -104 -1 q 243 334 12 -1 l 188 336 l 134 343 l 224 389 l 309 440 q 487 775 426 640 q 553 983 553 923 m 516 1336 l 665 1308 l 793 1121 l 692 1141 l 516 1336 z "},"Á":{"ha":875,"x_min":-218,"x_max":865,"o":"m 336 421 l 406 408 l 469 406 l 488 407 q 506 588 488 447 l 535 812 l 484 696 q 446 621 479 686 q 336 421 395 518 m 553 983 l 635 1013 l 707 1040 q 640 751 666 911 q 618 593 629 684 q 606 408 606 486 l 652 410 l 713 418 l 665 387 l 617 361 l 599 357 l 595 282 l 593 225 q 602 155 592 177 q 627 135 610 136 q 665 156 641 134 q 713 214 689 177 l 720 186 q 500 -28 553 -28 q 467 -3 481 -28 q 452 60 450 26 l 458 161 l 478 330 l 435 326 l 342 326 l 282 330 q -135 -147 -11 -147 q -211 -96 -191 -147 q -218 -54 -218 -78 q -60 260 -218 85 l -33 262 q -131 60 -131 134 q -117 16 -131 31 q -79 -1 -104 -1 q 243 334 13 -1 l 187 336 l 133 343 l 223 389 l 308 440 q 486 775 428 644 q 536 899 522 854 q 553 983 553 947 m 575 1121 l 715 1301 l 865 1320 l 664 1132 l 575 1121 z "},"Â":{"ha":875,"x_min":-218,"x_max":861,"o":"m 336 421 l 406 408 l 469 406 l 488 407 q 506 588 488 447 l 535 812 l 484 696 q 446 621 479 686 q 336 421 395 518 m 553 983 l 635 1013 l 707 1040 q 640 751 666 911 q 618 593 629 684 q 606 408 606 486 l 652 410 l 713 418 l 665 387 l 617 361 l 599 357 l 595 282 l 593 225 q 602 155 592 177 q 627 135 610 136 q 665 156 641 134 q 713 214 689 177 l 720 186 q 500 -28 553 -28 q 467 -3 481 -28 q 452 60 450 26 l 458 161 l 478 330 l 435 326 l 342 326 l 282 330 q -135 -147 -11 -147 q -211 -96 -191 -147 q -218 -54 -218 -78 q -60 260 -218 85 l -33 262 q -131 60 -131 134 q -117 16 -131 31 q -79 -1 -104 -1 q 243 334 13 -1 l 187 336 l 133 343 l 223 389 l 308 440 q 486 775 428 644 q 536 899 522 854 q 553 983 553 947 m 674 1358 l 762 1358 l 861 1153 l 807 1121 l 710 1285 l 524 1121 l 460 1154 l 674 1358 z "},"Ã":{"ha":875,"x_min":-218,"x_max":895,"o":"m 336 421 l 406 408 l 469 406 l 488 407 q 506 588 488 447 l 535 812 l 484 696 q 446 621 473 673 q 336 421 395 520 m 553 983 l 635 1013 l 707 1040 q 640 751 666 911 q 618 593 629 684 q 606 408 606 486 l 652 410 l 713 418 l 665 387 l 617 361 l 599 357 l 595 282 l 593 225 q 602 155 592 177 q 627 135 610 136 q 665 156 641 134 q 713 214 689 177 l 720 186 q 500 -28 553 -28 q 467 -3 481 -28 q 452 60 450 26 l 458 161 l 478 330 l 435 326 l 342 326 l 282 330 q -135 -147 -11 -147 q -211 -96 -191 -147 q -218 -54 -218 -78 q -60 260 -218 85 l -33 262 q -131 60 -131 134 q -117 16 -131 31 q -79 -1 -104 -1 q 243 334 13 -1 l 187 336 l 133 343 l 223 389 l 308 440 q 486 775 428 644 q 536 899 522 854 q 553 983 553 947 m 869 1310 l 895 1300 q 831 1200 861 1228 q 766 1173 799 1171 l 739 1174 l 715 1179 l 616 1208 l 599 1210 q 564 1198 581 1211 q 525 1156 547 1185 l 497 1170 q 561 1262 530 1231 q 623 1293 592 1293 l 636 1292 l 661 1286 l 749 1263 l 775 1257 l 787 1256 q 869 1310 838 1256 z "},"Ä":{"ha":875,"x_min":-218,"x_max":926,"o":"m 336 421 l 406 408 l 469 406 l 488 407 q 506 588 488 447 l 535 812 l 484 696 q 446 621 473 673 q 336 421 395 520 m 553 983 l 635 1013 l 707 1040 q 640 751 666 911 q 618 593 629 684 q 606 408 606 486 l 652 410 l 713 418 l 665 387 l 617 361 l 599 357 l 595 282 l 593 225 q 602 155 592 177 q 627 135 610 136 q 665 156 641 134 q 713 214 689 177 l 720 186 q 500 -28 553 -28 q 467 -3 481 -28 q 452 60 450 26 l 458 161 l 478 330 l 435 326 l 342 326 l 282 330 q -135 -147 -11 -147 q -211 -96 -191 -147 q -218 -54 -218 -78 q -60 260 -218 85 l -33 262 q -131 60 -131 134 q -117 16 -131 31 q -79 -1 -104 -1 q 243 334 13 -1 l 187 336 l 133 343 l 223 389 l 308 440 q 486 775 428 644 q 536 899 522 854 q 553 983 553 947 m 706 1179 l 802 1279 q 831 1270 811 1276 q 892 1256 857 1261 q 926 1255 901 1255 q 868 1185 911 1214 q 785 1158 829 1158 q 770 1160 778 1158 q 706 1179 743 1160 m 467 1179 l 562 1279 q 628 1260 597 1265 q 661 1256 646 1257 q 686 1255 672 1255 q 630 1185 669 1211 q 546 1158 592 1158 q 467 1179 507 1158 z "},"Å":{"ha":875,"x_min":-218,"x_max":807,"o":"m 668 1281 q 610 1256 635 1281 q 585 1199 585 1232 q 610 1140 585 1166 q 668 1114 635 1114 q 728 1139 703 1114 q 751 1199 751 1163 q 728 1257 751 1234 q 668 1281 704 1281 m 668 1337 q 767 1297 727 1337 q 807 1199 807 1257 q 766 1100 807 1142 q 668 1058 725 1058 q 571 1100 612 1058 q 529 1199 529 1143 q 569 1297 529 1257 q 668 1337 610 1337 m 336 421 l 406 408 l 469 406 l 488 407 q 496 506 488 448 q 503 564 499 534 l 506 588 l 534 812 q 483 696 513 764 q 446 621 478 686 q 336 421 390 511 m 553 977 l 633 1002 q 707 1029 673 1014 q 642 760 667 912 q 606 408 606 549 l 651 410 l 713 418 l 665 387 l 617 361 l 599 357 l 594 282 l 593 225 q 602 155 591 175 q 627 135 608 136 q 665 156 641 134 q 713 214 689 177 l 720 186 q 500 -28 553 -28 q 467 -3 481 -28 q 452 60 450 26 l 458 161 l 478 330 l 435 326 l 342 326 l 282 330 q -135 -147 -11 -147 q -211 -96 -191 -147 q -218 -54 -218 -78 q -60 260 -218 85 l -32 262 q -131 60 -131 135 q -117 16 -131 31 q -79 -1 -104 -1 q 243 334 12 -1 l 188 336 l 134 343 l 224 389 l 309 440 q 486 774 418 624 q 536 895 522 854 q 553 977 553 943 z "},"Ç":{"ha":758,"x_min":-26,"x_max":819,"o":"m 560 304 l 631 317 q 165 -41 384 -41 q 22 19 75 -41 q -26 168 -26 76 q 174 629 -26 374 q 463 909 311 804 q 726 1014 615 1014 q 793 990 770 1014 q 819 929 819 970 q 767 792 819 867 q 701 713 746 762 q 610 621 654 661 q 489 531 557 574 q 363 468 444 503 l 349 507 q 586 637 492 548 q 681 811 681 727 q 651 884 681 856 q 576 913 621 913 q 396 819 504 913 q 273 677 335 765 q 168 496 215 595 q 130 389 143 442 q 117 289 117 336 q 167 134 117 190 q 310 77 224 70 l 361 81 q 401 95 385 85 q 560 304 516 208 m 197 0 l 241 0 l 179 -83 l 191 -82 l 220 -78 q 289 -97 260 -78 q 317 -144 317 -117 q 250 -239 317 -190 q 115 -289 184 -289 q 77 -282 92 -289 q 38 -262 54 -275 l 64 -225 q 99 -245 74 -233 q 146 -250 117 -250 q 207 -232 176 -250 q 235 -197 232 -217 q 180 -151 235 -165 q 143 -146 160 -144 l 121 -147 l 106 -153 l 92 -143 l 197 0 z "},"È":{"ha":743,"x_min":-24,"x_max":774,"o":"m 521 296 l 588 304 q 414 79 518 173 q 163 -38 287 -38 q 30 14 83 -38 q -24 142 -24 65 q 97 361 -24 255 q 319 497 190 443 q 227 552 257 519 q 196 629 196 585 q 275 787 196 701 q 413 907 316 830 q 464 946 442 930 q 531 989 504 975 q 606 1010 571 1010 q 705 979 663 1010 q 746 913 746 949 q 703 815 746 866 q 647 760 686 794 q 574 701 609 726 l 551 713 q 604 760 585 736 q 621 806 621 785 q 581 871 622 844 q 505 895 545 895 l 488 895 q 463 889 481 895 q 425 873 440 885 q 335 717 335 787 q 425 595 335 639 q 582 559 496 559 l 595 559 l 524 511 l 468 468 l 425 474 l 395 477 q 318 463 363 477 q 292 450 314 461 q 177 359 227 418 q 121 227 121 292 q 168 134 121 166 q 273 104 210 104 q 364 116 314 104 q 442 147 409 126 l 488 220 l 521 296 m 496 1336 l 645 1308 l 774 1121 l 672 1141 l 496 1336 z "},"É":{"ha":743,"x_min":-24,"x_max":846,"o":"m 521 296 l 588 304 q 414 79 518 173 q 163 -38 287 -38 q 30 14 83 -38 q -24 142 -24 65 q 97 361 -24 255 q 319 497 190 443 q 227 552 257 519 q 196 629 196 585 q 275 787 196 701 q 413 907 316 830 q 464 946 442 930 q 531 989 504 975 q 606 1010 571 1010 q 705 979 663 1010 q 746 913 746 949 q 703 815 746 866 q 647 760 686 794 q 574 701 609 726 l 551 713 q 604 760 585 736 q 621 806 621 785 q 581 871 622 844 q 505 895 545 895 l 488 895 q 463 889 481 895 q 425 873 440 885 q 335 717 335 787 q 425 595 335 639 q 582 559 496 559 l 595 559 l 524 511 l 468 468 l 425 474 l 395 477 q 318 463 363 477 q 292 450 314 461 q 177 359 227 418 q 121 227 121 292 q 168 134 121 166 q 273 104 210 104 q 364 116 314 104 q 442 147 409 126 l 488 220 l 521 296 m 555 1121 l 696 1301 l 846 1320 l 645 1132 l 555 1121 z "},"Ê":{"ha":743,"x_min":-24,"x_max":842,"o":"m 521 296 l 588 304 q 414 79 518 173 q 163 -38 287 -38 q 30 14 83 -38 q -24 142 -24 65 q 97 361 -24 255 q 319 497 190 443 q 227 552 257 519 q 196 629 196 585 q 275 787 196 701 q 413 907 316 830 q 464 946 442 930 q 531 989 504 975 q 606 1010 571 1010 q 705 979 663 1010 q 746 913 746 949 q 703 815 746 866 q 647 760 686 794 q 574 701 609 726 l 551 713 q 604 760 585 736 q 621 806 621 785 q 581 871 622 844 q 505 895 545 895 l 488 895 q 463 889 481 895 q 425 873 440 885 q 335 717 335 787 q 425 595 335 639 q 582 559 496 559 l 595 559 l 524 511 l 468 468 l 425 474 l 395 477 q 318 463 363 477 q 292 450 314 461 q 177 359 227 418 q 121 227 121 292 q 168 134 121 166 q 273 104 210 104 q 364 116 314 104 q 442 147 409 126 l 488 220 l 521 296 m 654 1358 l 742 1358 l 842 1153 l 787 1121 l 690 1285 l 505 1121 l 440 1154 l 654 1358 z "},"Ë":{"ha":743,"x_min":-24,"x_max":907,"o":"m 521 296 l 588 304 q 414 79 518 173 q 163 -38 287 -38 q 30 14 83 -38 q -24 142 -24 65 q 97 361 -24 255 q 319 497 190 443 q 227 552 257 519 q 196 629 196 585 q 275 787 196 701 q 413 907 316 830 q 464 946 442 930 q 531 989 504 975 q 606 1010 571 1010 q 705 979 663 1010 q 746 913 746 949 q 703 815 746 866 q 647 760 686 794 q 574 701 609 726 l 551 713 q 604 760 585 736 q 621 806 621 785 q 581 871 622 844 q 505 895 545 895 l 488 895 q 463 889 481 895 q 425 873 440 885 q 335 717 335 787 q 425 595 335 639 q 582 559 496 559 l 595 559 l 524 511 l 468 468 l 425 474 l 395 477 q 318 463 363 477 q 292 450 314 461 q 177 359 227 418 q 121 227 121 292 q 168 134 121 166 q 273 104 210 104 q 364 116 314 104 q 442 147 409 126 l 488 220 l 521 296 m 686 1179 l 782 1279 q 844 1261 820 1266 q 907 1255 882 1255 q 849 1185 891 1213 q 766 1158 810 1158 q 751 1159 759 1158 q 724 1164 743 1160 q 686 1179 707 1168 m 448 1179 l 542 1279 q 570 1271 551 1276 q 632 1256 593 1261 q 667 1255 642 1255 q 611 1186 650 1213 q 526 1158 571 1158 q 511 1160 519 1158 q 448 1179 486 1160 z "},"Ì":{"ha":599,"x_min":-61,"x_max":656,"o":"m 144 732 q 275 929 187 852 q 453 1003 363 1006 l 641 998 q 535 873 568 936 q 434 583 494 793 q 332 267 368 350 q 169 11 272 125 q -24 -128 65 -104 q -61 -28 -61 -91 q -25 151 -61 50 q 0 213 -17 175 l 71 265 q 45 188 57 240 q 32 95 32 134 q 43 22 32 51 q 75 -20 54 -7 q 184 189 133 46 q 252 414 203 244 q 307 607 271 486 q 353 741 323 658 q 430 896 396 858 l 395 897 l 363 900 l 318 896 q 299 892 306 893 q 265 882 292 892 q 239 839 249 863 l 212 766 l 184 751 l 144 732 m 378 1336 l 527 1308 l 656 1121 l 555 1141 l 378 1336 z "},"Í":{"ha":599,"x_min":-61,"x_max":728,"o":"m 144 732 q 275 929 187 852 q 453 1003 363 1006 l 640 998 q 535 873 566 935 q 433 581 492 791 q 332 267 368 351 q 169 11 272 125 q -24 -128 65 -104 q -61 -28 -61 -91 q -25 151 -61 50 q 0 213 -17 175 l 71 265 q 45 188 57 240 q 32 95 32 134 q 43 22 32 51 q 75 -20 54 -7 q 184 189 133 46 q 252 414 205 248 q 353 741 313 632 q 429 896 395 857 l 395 897 l 363 900 l 318 896 q 299 892 306 893 q 265 882 292 892 q 239 839 249 863 l 212 766 l 184 751 l 144 732 m 437 1121 l 578 1301 l 728 1320 l 526 1132 l 437 1121 z "},"Î":{"ha":599,"x_min":-61,"x_max":724,"o":"m 144 732 q 275 929 187 852 q 453 1003 363 1006 l 640 998 q 535 873 566 935 q 433 581 492 791 q 332 267 368 351 q 169 11 272 125 q -24 -128 65 -104 q -61 -28 -61 -91 q -25 151 -61 50 q 0 213 -17 175 l 71 265 q 45 188 57 240 q 32 95 32 134 q 43 22 32 51 q 75 -20 54 -7 q 184 189 133 46 q 252 414 205 248 q 353 741 313 632 q 429 896 395 857 l 395 897 l 363 900 l 318 896 q 299 892 306 893 q 265 882 292 892 q 239 839 249 863 l 212 766 l 184 751 l 144 732 m 536 1358 l 624 1358 l 724 1153 l 669 1121 l 572 1285 l 387 1121 l 322 1154 l 536 1358 z "},"Ï":{"ha":599,"x_min":-61,"x_max":789,"o":"m 144 732 q 275 929 187 852 q 453 1003 363 1006 l 641 998 q 535 873 568 936 q 434 583 494 793 q 332 267 368 350 q 169 11 272 125 q -24 -128 65 -104 q -61 -28 -61 -91 q -25 151 -61 50 q 0 213 -17 175 l 71 265 q 45 188 57 240 q 32 95 32 134 q 43 22 32 51 q 75 -20 54 -7 q 184 189 133 46 q 252 414 203 244 q 307 607 271 486 q 353 741 323 658 q 430 896 396 858 l 395 897 l 363 900 l 318 896 q 299 892 306 893 q 265 882 292 892 q 239 839 249 863 l 212 766 l 184 751 l 144 732 m 568 1179 l 664 1279 q 727 1261 699 1267 q 789 1255 755 1255 q 730 1185 774 1214 q 648 1158 692 1158 q 633 1159 641 1158 q 606 1164 625 1160 q 568 1179 589 1168 m 330 1179 l 424 1279 q 487 1261 454 1267 q 549 1255 523 1255 q 493 1186 532 1213 q 408 1158 453 1158 q 393 1160 401 1158 q 330 1179 367 1160 z "},"Ð":{"ha":1003,"x_min":-70,"x_max":978,"o":"m 199 151 q 517 92 399 92 q 570 95 553 92 q 608 103 583 96 q 680 136 649 115 q 805 323 753 189 q 852 547 852 445 q 781 770 852 677 q 585 901 710 862 q 482 711 540 826 l 367 482 l 571 482 l 546 431 l 342 431 l 199 151 m 60 518 l 54 566 l 52 611 q 61 706 49 653 q 98 770 73 741 q 599 1015 315 1015 q 876 897 769 1015 q 978 610 978 782 q 873 291 978 444 q 629 54 783 159 q 516 -6 574 16 q 411 -28 458 -28 q 339 -20 383 -28 q 227 9 336 -19 l 107 39 q 2 -41 51 -10 q -58 -71 -47 -71 l -67 -68 l -70 -61 q -26 56 -70 -26 l -21 66 q 28 155 -3 101 q 61 180 46 180 q 142 165 82 180 l 147 164 q 160 197 152 176 q 191 273 167 214 q 258 431 213 326 l 121 431 l 146 482 l 279 482 q 345 633 291 507 l 413 793 l 493 852 l 562 909 l 538 910 l 502 911 q 321 883 420 912 q 210 824 237 859 q 157 732 186 794 l 60 518 z "},"Ñ":{"ha":1003,"x_min":-188,"x_max":983,"o":"m 133 828 q 289 947 227 909 q 427 1014 356 989 q 554 685 492 911 q 612 442 587 566 q 665 143 637 321 q 833 501 773 343 q 893 751 893 659 q 817 865 893 865 q 707 786 761 865 l 693 810 q 760 892 720 848 q 824 957 804 939 q 926 1011 886 1011 q 968 985 952 1011 q 983 913 983 960 q 873 500 983 769 q 575 -77 760 222 l 564 -78 q 388 753 500 416 q 89 64 281 391 q -134 -191 -60 -191 q -171 -164 -155 -191 q -188 -104 -188 -137 q -24 228 -188 42 l 19 241 q -31 187 -16 205 q -66 132 -45 170 q -96 32 -96 77 q -68 -3 -96 2 q 55 104 -18 -3 q 109 192 79 141 q 255 486 182 322 q 353 789 353 706 q 335 852 353 829 q 282 872 315 872 q 139 798 222 872 l 133 828 m 925 1310 l 950 1300 q 886 1200 916 1228 q 821 1173 854 1171 l 795 1174 l 771 1179 l 671 1208 l 654 1210 q 618 1198 637 1211 q 581 1156 602 1185 l 553 1170 q 616 1262 585 1231 q 678 1293 648 1293 l 693 1292 l 717 1286 l 804 1263 l 831 1257 l 843 1256 q 925 1310 893 1256 z "},"Ò":{"ha":932,"x_min":-5,"x_max":939,"o":"m 437 926 l 460 922 q 236 667 320 817 q 147 340 147 507 q 214 152 147 224 q 397 77 282 77 q 602 170 511 77 q 734 379 681 250 q 787 620 787 507 q 749 785 787 718 q 611 867 703 867 q 370 693 486 867 l 335 692 l 463 850 q 530 935 488 880 q 566 990 553 968 q 610 1007 591 1003 q 685 1014 641 1014 q 872 925 800 1014 q 939 725 939 843 q 863 426 939 572 q 642 153 787 281 q 433 6 532 58 q 256 -46 333 -46 q 65 31 136 -46 q -5 236 -5 108 q 129 633 -5 440 q 437 926 247 803 m 545 1336 l 693 1308 l 823 1121 l 721 1141 l 545 1336 z "},"Ó":{"ha":932,"x_min":-5,"x_max":939,"o":"m 437 926 l 460 922 q 236 667 320 817 q 147 340 147 507 q 214 152 147 224 q 397 77 282 77 q 602 170 511 77 q 734 379 681 250 q 787 620 787 507 q 749 785 787 718 q 611 867 703 867 q 370 693 486 867 l 335 692 l 463 850 q 530 935 488 880 q 566 990 553 968 q 610 1007 591 1003 q 685 1014 641 1014 q 872 925 800 1014 q 939 725 939 843 q 863 426 939 572 q 642 153 787 281 q 433 6 532 58 q 256 -46 333 -46 q 65 31 136 -46 q -5 236 -5 108 q 129 633 -5 440 q 437 926 247 803 m 604 1121 l 745 1301 l 895 1320 l 693 1132 l 604 1121 z "},"Ô":{"ha":932,"x_min":-5,"x_max":939,"o":"m 437 926 l 460 922 q 236 667 320 817 q 147 340 147 507 q 214 152 147 224 q 397 77 282 77 q 602 170 511 77 q 734 379 681 250 q 787 620 787 507 q 749 785 787 718 q 611 867 703 867 q 370 693 486 867 l 335 692 l 463 850 q 530 935 488 880 q 566 990 553 968 q 610 1007 591 1003 q 685 1014 641 1014 q 872 925 800 1014 q 939 725 939 843 q 863 426 939 572 q 642 153 787 281 q 433 6 532 58 q 256 -46 333 -46 q 65 31 136 -46 q -5 236 -5 108 q 129 633 -5 440 q 437 926 247 803 m 703 1358 l 791 1358 l 891 1153 l 836 1121 l 739 1285 l 553 1121 l 489 1154 l 703 1358 z "},"Õ":{"ha":932,"x_min":-5,"x_max":939,"o":"m 437 926 l 460 922 q 236 667 320 817 q 147 340 147 507 q 214 152 147 224 q 397 77 282 77 q 602 170 511 77 q 734 379 681 250 q 787 620 787 507 q 749 785 787 718 q 611 867 703 867 q 370 693 486 867 l 335 692 l 463 850 q 530 935 488 880 q 566 990 553 968 q 610 1007 591 1003 q 685 1014 641 1014 q 872 925 800 1014 q 939 725 939 843 q 863 426 939 572 q 642 153 787 281 q 433 6 532 58 q 256 -46 333 -46 q 65 31 136 -46 q -5 236 -5 108 q 129 633 -5 440 q 437 926 247 803 m 899 1310 l 924 1300 q 860 1200 890 1228 q 795 1173 828 1171 l 768 1174 l 745 1179 l 645 1208 l 628 1210 q 593 1198 610 1211 q 554 1156 576 1185 l 526 1170 q 590 1262 559 1231 q 652 1293 621 1293 l 665 1292 l 690 1286 l 778 1263 l 804 1257 l 817 1256 q 899 1310 867 1256 z "},"Ö":{"ha":932,"x_min":-5,"x_max":956,"o":"m 437 926 l 460 922 q 236 667 320 817 q 147 340 147 507 q 214 152 147 224 q 397 77 282 77 q 602 170 511 77 q 734 379 681 250 q 787 620 787 507 q 749 785 787 718 q 611 867 703 867 q 370 693 486 867 l 335 692 l 463 850 q 530 935 488 880 q 566 990 553 968 q 610 1007 591 1003 q 685 1014 641 1014 q 872 925 800 1014 q 939 725 939 843 q 863 426 939 572 q 642 153 787 281 q 433 6 532 58 q 256 -46 333 -46 q 65 31 136 -46 q -5 236 -5 108 q 129 633 -5 440 q 437 926 247 803 m 735 1179 l 831 1279 q 860 1270 840 1276 q 921 1256 886 1261 q 956 1255 930 1255 q 897 1185 941 1214 q 814 1158 859 1158 q 799 1160 807 1158 q 735 1179 772 1160 m 496 1179 l 591 1279 q 657 1260 627 1265 q 690 1256 675 1257 q 715 1255 701 1255 q 660 1185 698 1211 q 575 1158 621 1158 q 496 1179 536 1158 z "},"×":{"ha":1157,"x_min":199,"x_max":968,"o":"m 265 799 l 583 481 l 901 799 l 968 732 l 650 414 l 968 96 l 901 31 l 583 347 l 265 31 l 199 96 l 517 414 l 199 732 l 265 799 z "},"Ù":{"ha":971,"x_min":11,"x_max":928,"o":"m 146 844 l 353 983 q 417 1015 394 1011 q 446 1000 435 1015 q 455 960 455 985 q 351 633 455 912 l 321 551 l 276 435 q 191 178 191 214 q 200 149 191 160 q 222 138 207 138 q 378 262 269 138 q 509 429 452 347 q 629 646 572 522 q 754 956 684 764 l 831 985 q 896 1010 850 992 q 922 1019 905 1013 l 926 1017 l 928 1013 q 884 906 928 1005 l 824 772 q 671 391 711 519 q 636 195 636 280 q 649 130 636 149 q 682 110 659 113 q 779 178 719 110 l 789 153 q 637 10 711 66 q 530 -43 566 -43 q 475 62 475 -43 q 492 233 475 141 q 538 414 507 321 l 534 417 q 260 86 401 216 q 47 -43 119 -43 q 11 -1 11 -43 q 79 207 11 22 l 144 387 q 233 660 186 502 q 269 807 269 782 q 232 854 269 854 q 208 849 221 854 q 188 838 195 841 q 153 819 168 827 l 146 844 m 509 1336 l 657 1308 l 786 1121 l 685 1141 l 509 1336 z "},"Ú":{"ha":971,"x_min":11,"x_max":928,"o":"m 146 844 l 353 983 q 417 1015 394 1011 q 446 1000 435 1015 q 455 960 455 985 q 351 633 455 912 l 321 551 l 276 435 q 191 178 191 214 q 200 149 191 160 q 222 138 207 138 q 378 262 269 138 q 509 429 452 347 q 629 646 572 522 q 754 956 684 764 l 831 985 q 896 1010 850 992 q 922 1019 905 1013 l 926 1017 l 928 1013 q 884 906 928 1005 l 824 772 q 671 391 711 519 q 636 195 636 280 q 649 130 636 149 q 682 110 659 113 q 779 178 719 110 l 789 153 q 637 10 711 66 q 530 -43 566 -43 q 475 62 475 -43 q 492 233 475 141 q 538 414 507 321 l 534 417 q 260 86 401 216 q 47 -43 119 -43 q 11 -1 11 -43 q 79 207 11 22 l 144 387 q 233 660 186 502 q 269 807 269 782 q 232 854 269 854 q 208 849 221 854 q 188 838 195 841 q 153 819 168 827 l 146 844 m 568 1121 l 709 1301 l 859 1320 l 657 1132 l 568 1121 z "},"Û":{"ha":971,"x_min":11,"x_max":928,"o":"m 146 844 l 353 983 q 417 1015 394 1011 q 446 1000 435 1015 q 455 960 455 985 q 351 633 455 912 l 321 551 l 276 435 q 191 178 191 214 q 200 149 191 160 q 222 138 207 138 q 378 262 269 138 q 509 429 452 347 q 629 646 572 522 q 754 956 684 764 l 831 985 q 896 1010 850 992 q 922 1019 905 1013 l 926 1017 l 928 1013 q 884 906 928 1005 l 824 772 q 671 391 711 519 q 636 195 636 280 q 649 130 636 149 q 682 110 659 113 q 779 178 719 110 l 789 153 q 637 10 711 66 q 530 -43 566 -43 q 475 62 475 -43 q 492 233 475 141 q 538 414 507 321 l 534 417 q 260 86 401 216 q 47 -43 119 -43 q 11 -1 11 -43 q 79 207 11 22 l 144 387 q 233 660 186 502 q 269 807 269 782 q 232 854 269 854 q 208 849 221 854 q 188 838 195 841 q 153 819 168 827 l 146 844 m 667 1358 l 754 1358 l 854 1153 l 800 1121 l 703 1285 l 517 1121 l 452 1154 l 667 1358 z "},"Ü":{"ha":971,"x_min":11,"x_max":928,"o":"m 146 844 l 353 983 q 417 1015 394 1011 q 446 1000 435 1015 q 455 960 455 985 q 351 633 455 912 l 321 551 l 276 435 q 191 178 191 214 q 200 149 191 160 q 222 138 207 138 q 378 262 269 138 q 509 429 452 347 q 629 646 572 522 q 754 956 684 764 l 831 985 q 896 1010 850 992 q 922 1019 905 1013 l 926 1017 l 928 1013 q 884 906 928 1005 l 824 772 q 671 391 711 519 q 636 195 636 280 q 649 130 636 149 q 682 110 659 113 q 779 178 719 110 l 789 153 q 637 10 711 66 q 530 -43 566 -43 q 475 62 475 -43 q 492 233 475 141 q 538 414 507 321 l 534 417 q 260 86 401 216 q 47 -43 119 -43 q 11 -1 11 -43 q 79 207 11 22 l 144 387 q 233 660 186 502 q 269 807 269 782 q 232 854 269 854 q 208 849 221 854 q 188 838 195 841 q 153 819 168 827 l 146 844 m 699 1179 l 795 1279 q 815 1272 805 1275 q 895 1256 858 1258 q 920 1255 905 1255 q 863 1185 903 1213 q 778 1158 823 1158 q 699 1179 739 1158 m 460 1179 l 554 1279 q 575 1272 564 1275 q 654 1256 620 1258 q 680 1255 665 1255 q 624 1185 662 1211 q 539 1158 585 1158 q 460 1179 500 1158 z "},"Ý":{"ha":868,"x_min":78,"x_max":970,"o":"m 475 285 q 359 113 423 197 q 217 -29 270 -5 q 203 -75 206 -57 l 198 -117 q 199 -144 198 -135 q 203 -163 203 -157 q 221 -205 210 -186 q 479 283 347 -130 l 475 285 m 78 856 l 128 892 q 338 1023 311 1023 q 374 928 374 1023 q 318 565 374 800 q 262 232 262 330 q 275 171 262 195 q 311 147 289 147 q 568 503 394 147 q 756 938 670 714 l 853 974 l 970 1019 q 905 922 941 983 q 852 824 900 914 q 808 741 837 796 q 602 296 718 568 q 458 -24 491 39 q 397 -107 441 -57 q 354 -153 385 -122 q 296 -204 337 -169 q 156 -296 195 -290 q 132 -277 143 -296 q 124 -227 124 -257 q 142 -139 124 -186 q 202 -28 161 -92 q 141 13 162 -16 q 120 86 117 46 l 124 142 l 138 216 l 142 232 q 229 767 229 576 q 167 859 229 859 q 106 844 143 859 q 82 832 96 840 l 78 856 m 573 1121 l 713 1301 l 863 1320 l 662 1132 l 573 1121 z "},"Þ":{"ha":824,"x_min":-26,"x_max":781,"o":"m 213 253 l 260 241 l 307 236 q 433 270 378 236 q 486 313 460 286 q 514 342 507 333 q 536 375 519 351 q 635 617 635 517 q 620 679 635 660 q 578 699 606 699 q 354 520 477 699 q 213 253 263 389 m 147 802 l 150 836 l 359 974 q 420 1006 407 1006 q 446 968 446 1006 q 414 814 446 924 q 310 519 389 728 l 318 519 q 526 727 420 646 q 688 808 631 808 q 755 777 730 808 q 781 684 781 745 q 724 490 781 592 q 566 309 668 391 q 397 208 482 241 q 227 174 309 174 l 207 174 l 185 176 q 174 144 180 164 q 150 47 150 79 q 156 29 150 35 q 174 21 160 24 q 243 49 193 21 q 274 70 253 54 l 273 39 l 93 -70 q 45 -92 82 -77 q 13 -100 23 -100 q -26 -61 -26 -100 q 73 205 -26 1 l 43 228 l 17 252 q 60 279 47 269 l 106 311 q 265 807 265 719 q 258 833 265 823 q 235 842 253 839 q 147 802 195 842 z "},"à":{"ha":541,"x_min":-111,"x_max":510,"o":"m 325 530 q 253 600 301 600 q 221 583 239 600 q 175 526 198 562 q 86 347 126 452 q 42 153 42 230 q 48 114 42 127 q 67 100 54 100 q 168 187 101 100 q 246 304 212 244 l 294 408 q 357 546 317 461 l 354 550 l 325 530 m 400 132 l 405 102 q 207 -36 279 -36 q 179 -24 191 -36 q 171 14 171 -12 q 188 107 171 52 q 237 235 207 170 l 231 236 q 57 36 144 115 q -68 -39 -26 -39 q -111 38 -111 -39 q -86 180 -111 100 q -16 349 -61 261 q 25 420 8 394 q 163 579 94 524 q 257 640 199 608 q 359 678 327 678 q 397 660 372 678 q 431 617 418 640 q 471 639 444 625 l 496 654 l 502 653 l 505 648 q 496 625 503 640 q 474 576 491 614 l 421 453 q 347 252 382 363 q 317 117 317 161 q 322 95 317 103 q 338 85 327 85 q 366 96 350 85 l 400 132 m 233 999 l 381 971 l 510 783 l 409 803 l 233 999 z "},"á":{"ha":541,"x_min":-111,"x_max":582,"o":"m 325 530 q 253 600 301 600 q 221 583 239 600 q 175 526 198 562 q 86 347 126 452 q 42 153 42 230 q 48 114 42 127 q 67 100 54 100 q 168 187 101 100 q 246 304 212 244 l 293 408 q 357 546 317 461 l 354 550 l 325 530 m 400 132 l 404 102 q 207 -36 279 -36 q 179 -24 191 -36 q 171 14 171 -12 q 188 107 171 50 q 236 235 205 164 l 231 236 q 57 36 144 115 q -68 -39 -26 -39 q -111 38 -111 -39 q -86 180 -111 100 q -16 349 -61 261 q 25 420 8 394 q 163 579 94 524 q 257 640 199 608 q 359 678 327 678 q 397 660 372 678 q 431 617 418 640 q 471 639 444 625 l 496 654 l 502 653 l 505 648 q 496 626 502 639 q 474 576 490 614 l 421 453 q 346 252 380 356 q 317 117 317 161 q 322 95 317 103 q 338 85 327 85 q 366 96 350 85 l 400 132 m 292 783 l 432 964 l 582 982 l 380 795 l 292 783 z "},"â":{"ha":541,"x_min":-111,"x_max":578,"o":"m 325 530 q 253 600 301 600 q 221 583 239 600 q 175 526 198 562 q 86 347 126 452 q 42 153 42 230 q 48 114 42 127 q 67 100 54 100 q 168 187 101 100 q 246 304 212 244 l 293 408 q 357 546 317 461 l 354 550 l 325 530 m 400 132 l 404 102 q 207 -36 279 -36 q 179 -24 191 -36 q 171 14 171 -12 q 188 107 171 50 q 236 235 205 164 l 231 236 q 57 36 144 115 q -68 -39 -26 -39 q -111 38 -111 -39 q -86 180 -111 100 q -16 349 -61 261 q 25 420 8 394 q 163 579 94 524 q 257 640 199 608 q 359 678 327 678 q 397 660 372 678 q 431 617 418 640 q 471 639 444 625 l 496 654 l 502 653 l 505 648 q 496 626 502 639 q 474 576 490 614 l 421 453 q 346 252 380 356 q 317 117 317 161 q 322 95 317 103 q 338 85 327 85 q 366 96 350 85 l 400 132 m 391 1021 l 478 1021 l 578 815 l 524 783 l 427 947 l 241 783 l 176 817 l 391 1021 z "},"ã":{"ha":541,"x_min":-111,"x_max":611,"o":"m 325 530 q 253 600 301 600 q 221 583 239 600 q 175 526 198 562 q 86 347 126 452 q 42 153 42 230 q 48 114 42 127 q 67 100 54 100 q 168 187 101 100 q 246 304 212 244 l 293 408 q 357 546 317 461 l 354 550 l 325 530 m 400 132 l 404 102 q 207 -36 279 -36 q 179 -24 191 -36 q 171 14 171 -12 q 188 107 171 50 q 236 235 205 164 l 231 236 q 57 36 144 115 q -68 -39 -26 -39 q -111 38 -111 -39 q -86 180 -111 100 q -16 349 -61 261 q 25 420 8 394 q 163 579 94 524 q 257 640 199 608 q 359 678 327 678 q 397 660 372 678 q 431 617 418 640 q 471 639 444 625 l 496 654 l 502 653 l 505 648 q 496 626 502 639 q 474 576 490 614 l 421 453 q 346 252 380 356 q 317 117 317 161 q 322 95 317 103 q 338 85 327 85 q 366 96 350 85 l 400 132 m 587 972 l 611 963 q 547 863 577 890 q 482 835 515 833 l 456 836 l 432 842 l 356 864 l 332 869 l 315 872 q 279 860 296 872 q 242 819 262 848 l 214 832 q 339 956 276 956 l 353 954 l 376 949 l 465 925 l 492 920 l 505 918 q 587 972 553 918 z "},"ä":{"ha":541,"x_min":-111,"x_max":643,"o":"m 325 530 q 253 600 301 600 q 221 583 239 600 q 175 526 198 562 q 86 347 126 452 q 42 153 42 230 q 48 114 42 127 q 67 100 54 100 q 168 187 101 100 q 246 304 212 244 l 293 408 q 357 546 317 461 l 354 550 l 325 530 m 400 132 l 404 102 q 207 -36 279 -36 q 179 -24 191 -36 q 171 14 171 -12 q 188 107 171 50 q 236 235 205 164 l 231 236 q 57 36 144 115 q -68 -39 -26 -39 q -111 38 -111 -39 q -86 180 -111 100 q -16 349 -61 261 q 25 420 8 394 q 163 579 94 524 q 257 640 199 608 q 359 678 327 678 q 397 660 372 678 q 431 617 418 640 q 471 639 444 625 l 496 654 l 502 653 l 505 648 q 496 626 502 639 q 474 576 490 614 l 421 453 q 346 252 380 356 q 317 117 317 161 q 322 95 317 103 q 338 85 327 85 q 366 96 350 85 l 400 132 m 422 842 l 518 942 q 572 925 543 930 q 643 917 618 917 q 585 848 628 877 q 502 821 545 821 q 486 823 495 821 q 422 842 452 825 m 184 842 l 278 942 q 343 924 293 935 q 403 917 373 917 q 347 848 387 876 q 262 821 307 821 q 248 822 256 821 q 223 826 239 823 q 184 842 207 829 z "},"å":{"ha":541,"x_min":-111,"x_max":582,"o":"m 416 992 q 343 961 372 992 q 313 890 313 935 q 343 820 313 850 q 416 789 374 789 q 486 819 454 789 q 515 890 515 850 q 487 962 515 932 q 416 992 458 992 m 414 1059 q 532 1010 483 1059 q 582 890 582 961 q 534 771 582 819 q 414 722 486 722 q 294 770 342 722 q 246 890 246 819 q 294 1010 246 962 q 414 1059 342 1059 m 325 530 q 253 600 301 600 q 221 583 239 600 q 175 526 198 562 q 86 347 126 452 q 42 153 42 230 q 48 114 42 127 q 67 100 54 100 q 168 187 101 100 q 246 304 213 246 l 294 408 q 357 546 317 461 l 354 550 l 325 530 m 400 132 l 404 102 q 207 -36 279 -36 q 179 -24 191 -36 q 171 14 171 -12 q 188 107 171 50 q 236 235 205 164 l 231 236 q 57 36 144 115 q -68 -39 -26 -39 q -111 38 -111 -39 q -86 180 -111 100 q -16 349 -61 261 q 25 420 8 394 q 163 579 94 524 q 257 640 199 608 q 359 678 327 678 q 397 660 372 678 q 431 617 418 640 q 471 639 444 625 l 496 654 l 502 653 l 505 648 q 496 626 502 639 q 474 576 490 614 l 421 453 q 346 252 380 356 q 317 117 317 161 q 322 95 317 103 q 338 85 327 85 q 366 96 350 85 l 400 132 z "},"ç":{"ha":418,"x_min":-82,"x_max":416,"o":"m 213 178 l 275 191 q 158 49 233 117 q 1 -35 68 -35 q -64 12 -42 -35 q -82 98 -82 49 q 147 564 -82 340 q 276 648 197 613 q 395 682 354 682 q 410 674 403 682 l 416 653 q 359 481 416 606 l 331 468 q 279 446 312 460 q 237 425 258 436 q 270 495 258 461 q 282 555 282 528 q 275 587 282 576 q 254 596 267 596 q 222 582 237 596 q 184 541 208 572 q 96 366 134 476 q 57 175 57 255 q 77 98 57 125 q 127 70 96 70 l 138 70 q 213 178 183 102 m 79 0 l 122 0 l 61 -83 l 73 -82 l 102 -78 q 171 -97 142 -78 q 199 -144 199 -117 q 132 -240 199 -191 q -3 -289 65 -289 q -42 -282 -26 -289 q -81 -262 -64 -275 l -54 -225 q -20 -245 -45 -233 q 28 -250 -1 -250 q 89 -232 58 -250 q 117 -197 114 -217 q 62 -151 117 -165 q 25 -146 42 -144 l 3 -147 l -13 -153 l -26 -143 l 79 0 z "},"è":{"ha":418,"x_min":-82,"x_max":449,"o":"m 113 425 l 139 418 l 171 416 l 184 416 l 205 418 q 259 476 240 445 q 278 536 278 508 q 267 570 278 557 q 241 583 260 581 l 222 579 l 218 578 q 113 425 142 510 m 231 213 l 291 217 q 182 50 261 136 q 18 -49 92 -49 q -54 -11 -26 -49 q -82 90 -82 28 q -38 298 -82 190 q 78 489 5 403 q 229 621 149 573 q 371 669 309 669 q 411 657 396 669 q 425 621 425 643 q 400 548 425 589 q 319 461 374 507 q 258 418 292 439 q 195 382 237 406 q 135 360 176 373 q 85 351 106 351 q 57 248 64 303 q 54 217 55 231 q 53 188 53 181 q 139 64 53 64 l 150 64 l 159 66 q 200 125 183 90 q 220 168 211 148 q 231 213 224 180 m 171 999 l 319 971 l 449 783 l 348 803 l 171 999 z "},"é":{"ha":418,"x_min":-82,"x_max":521,"o":"m 113 425 l 139 418 l 171 416 l 184 416 l 205 418 q 258 477 239 444 q 278 536 278 509 q 267 570 278 557 q 241 583 260 581 l 222 579 l 218 578 q 113 425 142 510 m 231 213 l 290 217 q 182 50 261 136 q 18 -49 92 -49 q -54 -11 -26 -49 q -82 90 -82 28 q -38 298 -82 190 q 78 489 5 403 q 229 621 149 573 q 371 669 309 669 q 411 657 396 669 q 425 621 425 643 q 399 548 425 589 q 318 461 373 506 q 257 418 292 440 q 195 382 237 406 q 135 360 176 373 q 85 351 106 351 q 57 248 64 303 q 54 217 55 231 q 53 188 53 181 q 139 64 53 64 l 150 64 l 159 66 q 200 125 183 90 q 220 168 211 148 q 231 213 224 180 m 231 783 l 371 964 l 521 982 l 319 795 l 231 783 z "},"ê":{"ha":418,"x_min":-82,"x_max":517,"o":"m 113 425 l 139 418 l 171 416 l 184 416 l 205 418 q 258 477 239 444 q 278 536 278 509 q 267 570 278 557 q 241 583 260 581 l 222 579 l 218 578 q 113 425 142 510 m 231 213 l 290 217 q 182 50 261 136 q 18 -49 92 -49 q -54 -11 -26 -49 q -82 90 -82 28 q -38 298 -82 190 q 78 489 5 403 q 229 621 149 573 q 371 669 309 669 q 411 657 396 669 q 425 621 425 643 q 399 548 425 589 q 318 461 373 506 q 257 418 292 440 q 195 382 237 406 q 135 360 176 373 q 85 351 106 351 q 57 248 64 303 q 54 217 55 231 q 53 188 53 181 q 139 64 53 64 l 150 64 l 159 66 q 200 125 183 90 q 220 168 211 148 q 231 213 224 180 m 330 1021 l 417 1021 l 517 815 l 463 783 l 366 947 l 179 783 l 115 817 l 330 1021 z "},"ë":{"ha":418,"x_min":-82,"x_max":582,"o":"m 113 425 l 139 418 l 171 416 l 184 416 l 205 418 q 258 477 239 444 q 278 536 278 509 q 267 570 278 557 q 241 583 260 581 l 222 579 l 218 578 q 113 425 142 510 m 231 213 l 290 217 q 182 50 261 136 q 18 -49 92 -49 q -54 -11 -26 -49 q -82 90 -82 28 q -38 298 -82 190 q 78 489 5 403 q 229 621 149 573 q 371 669 309 669 q 411 657 396 669 q 425 621 425 643 q 399 548 425 589 q 318 461 373 506 q 257 418 292 440 q 195 382 237 406 q 135 360 176 373 q 85 351 106 351 q 57 248 64 303 q 54 217 55 231 q 53 188 53 181 q 139 64 53 64 l 150 64 l 159 66 q 200 125 183 90 q 220 168 211 148 q 231 213 224 180 m 361 842 l 457 942 q 547 918 491 926 q 582 917 557 917 q 524 848 567 877 q 440 821 484 821 q 425 822 433 821 q 401 826 417 823 q 361 842 385 829 m 122 842 l 217 942 q 286 922 237 932 q 317 918 302 919 q 342 917 327 917 q 286 848 325 874 q 201 821 247 821 q 186 823 195 821 q 163 827 174 823 q 122 842 145 829 z "},"ì":{"ha":309,"x_min":-93,"x_max":393,"o":"m 121 597 l 225 649 l 277 677 l 282 675 l 284 671 l 229 549 q 124 303 192 469 l 70 155 q 58 98 58 123 l 62 79 q 77 71 70 71 q 113 96 89 71 q 135 127 127 116 q 160 171 148 146 l 140 73 q 12 -20 48 3 q -53 -47 -33 -47 q -81 -31 -70 -47 q -93 10 -93 -16 q 1 288 -93 48 q 121 597 115 581 m 115 999 l 264 971 l 393 783 l 292 803 l 115 999 z "},"í":{"ha":309,"x_min":-93,"x_max":465,"o":"m 121 597 l 225 649 l 277 677 l 282 675 l 283 671 l 228 549 q 124 303 157 393 l 70 155 q 58 98 58 123 l 62 79 q 77 71 70 71 q 113 96 89 71 q 135 127 130 118 q 160 171 146 144 l 139 73 q 12 -20 49 3 q -53 -47 -33 -47 q -81 -31 -70 -47 q -93 10 -93 -16 q 1 288 -93 48 q 121 597 115 581 m 175 783 l 315 964 l 465 982 l 264 795 l 175 783 z "},"î":{"ha":309,"x_min":-93,"x_max":461,"o":"m 121 597 l 225 649 l 277 677 l 282 675 l 283 671 l 228 549 q 124 303 157 393 l 70 155 q 58 98 58 123 l 62 79 q 77 71 70 71 q 113 96 89 71 q 135 127 130 118 q 160 171 146 144 l 139 73 q 12 -20 49 3 q -53 -47 -33 -47 q -81 -31 -70 -47 q -93 10 -93 -16 q 1 288 -93 48 q 121 597 115 581 m 274 1021 l 361 1021 l 461 815 l 407 783 l 310 947 l 124 783 l 60 817 l 274 1021 z "},"ï":{"ha":309,"x_min":-93,"x_max":526,"o":"m 121 597 l 225 649 l 277 677 l 282 675 l 283 671 l 228 549 q 124 303 157 393 l 70 155 q 58 98 58 123 l 62 79 q 77 71 70 71 q 113 96 89 71 q 135 127 130 118 q 160 171 146 144 l 139 73 q 12 -20 49 3 q -53 -47 -33 -47 q -81 -31 -70 -47 q -93 10 -93 -16 q 1 288 -93 48 q 121 597 115 581 m 306 842 l 401 942 q 456 925 427 930 q 526 917 501 917 q 468 848 511 877 q 385 821 429 821 q 370 823 378 821 q 306 842 334 826 m 67 842 l 161 942 q 227 924 176 935 q 286 917 256 917 q 230 848 271 876 q 146 821 190 821 q 131 822 139 821 q 107 827 122 823 q 67 842 90 829 z "},"ð":{"ha":502,"x_min":-82,"x_max":582,"o":"m 278 669 l 304 665 q 133 454 201 574 q 54 197 54 318 q 146 81 54 81 l 174 85 l 201 96 q 303 319 264 187 q 342 574 342 450 q 306 778 342 667 l 161 707 l 161 749 l 289 814 l 265 859 q 254 880 260 867 q 239 899 243 893 l 293 951 l 346 992 q 420 875 376 962 l 582 953 l 582 911 l 433 836 q 450 772 446 790 q 457 730 454 759 q 464 663 463 684 q 464 624 464 663 q 431 395 464 499 q 323 195 397 290 q 187 50 266 120 q 21 -45 81 -45 q -54 -5 -25 -45 q -82 98 -82 32 q 36 419 -82 250 q 278 669 132 557 z "},"ñ":{"ha":636,"x_min":-104,"x_max":659,"o":"m 32 0 l -41 -13 q -104 -35 -68 -18 q -16 203 -87 18 q 113 640 113 532 l 199 668 q 256 688 260 688 l 265 684 q 269 669 267 680 q 191 441 269 638 q 90 191 140 316 l 100 188 q 239 397 159 293 q 330 507 273 441 q 432 620 382 568 l 553 675 q 592 688 579 688 q 603 682 600 685 q 606 668 606 678 q 588 608 606 651 q 522 471 568 571 l 511 446 q 465 345 496 414 q 429 254 448 305 q 399 136 399 174 q 431 92 399 92 l 448 95 q 465 102 461 98 l 465 79 l 399 41 q 264 -29 279 -29 q 237 -16 250 -29 q 228 20 228 0 q 323 275 228 77 l 360 351 q 410 477 410 454 q 406 492 410 485 l 392 497 q 188 279 326 497 q 32 0 93 130 m 633 972 l 659 963 q 596 863 625 890 q 530 835 566 833 l 503 836 l 479 842 l 403 864 l 379 869 l 363 872 q 327 860 343 872 q 289 819 314 852 l 261 832 q 387 956 327 956 l 401 954 l 425 949 l 513 925 l 539 920 l 551 918 q 633 972 602 918 z "},"ò":{"ha":502,"x_min":-82,"x_max":490,"o":"m 278 692 l 304 688 q 122 449 189 581 q 54 204 54 315 q 79 117 54 150 q 146 83 104 83 l 174 87 l 201 100 q 298 309 262 197 q 334 498 334 420 q 322 551 334 535 q 292 571 314 571 q 277 568 282 571 l 261 560 l 253 570 l 413 705 q 456 655 442 705 q 467 583 467 622 q 420 367 467 477 q 132 10 332 158 q 21 -45 58 -45 q -60 5 -32 -45 q -82 102 -82 44 q 35 432 -82 258 q 278 692 132 577 m 213 999 l 361 971 l 490 783 l 389 803 l 213 999 z "},"ó":{"ha":502,"x_min":-82,"x_max":563,"o":"m 278 692 l 304 688 q 122 449 189 581 q 54 204 54 315 q 79 117 54 150 q 146 83 104 83 l 174 87 l 201 100 q 298 309 262 197 q 334 498 334 420 q 322 551 334 535 q 292 571 314 571 q 277 568 282 571 l 261 560 l 253 570 l 413 705 q 456 655 442 705 q 467 583 467 622 q 420 367 467 477 q 132 10 332 158 q 21 -45 58 -45 q -60 5 -32 -45 q -82 102 -82 44 q 35 432 -82 258 q 278 692 132 577 m 273 783 l 413 964 l 563 982 l 361 795 l 273 783 z "},"ô":{"ha":502,"x_min":-82,"x_max":559,"o":"m 278 692 l 304 688 q 122 449 189 581 q 54 204 54 315 q 79 117 54 150 q 146 83 104 83 l 174 87 l 201 100 q 298 309 262 197 q 334 498 334 420 q 322 551 334 535 q 292 571 314 571 q 277 568 282 571 l 261 560 l 253 570 l 413 705 q 456 655 442 705 q 467 583 467 622 q 420 367 467 477 q 132 10 332 158 q 21 -45 58 -45 q -60 5 -32 -45 q -82 102 -82 44 q 35 432 -82 258 q 278 692 132 577 m 371 1021 l 458 1021 l 559 815 l 505 783 l 407 947 l 221 783 l 157 817 l 371 1021 z "},"õ":{"ha":502,"x_min":-82,"x_max":592,"o":"m 278 692 l 304 688 q 122 449 189 581 q 54 204 54 315 q 79 117 54 150 q 146 83 104 83 l 174 87 l 201 100 q 298 309 262 197 q 334 498 334 420 q 322 551 334 535 q 292 571 314 571 q 277 568 282 571 l 261 560 l 253 570 l 413 705 q 456 655 442 705 q 467 583 467 622 q 420 367 467 477 q 132 10 332 158 q 21 -45 58 -45 q -60 5 -32 -45 q -82 102 -82 44 q 35 432 -82 258 q 278 692 132 577 m 567 972 l 592 963 q 532 864 562 892 q 463 835 500 833 l 436 836 l 413 842 l 336 864 l 313 869 l 296 872 q 260 860 277 872 q 222 819 243 848 l 195 832 q 258 925 228 895 q 319 956 292 958 l 335 954 l 359 949 l 446 925 l 473 920 l 485 918 q 549 947 522 918 q 567 972 558 958 z "},"ö":{"ha":502,"x_min":-82,"x_max":624,"o":"m 278 692 l 304 688 q 122 449 189 581 q 54 204 54 315 q 79 117 54 150 q 146 83 104 83 l 174 87 l 201 100 q 298 309 262 197 q 334 498 334 420 q 322 551 334 535 q 292 571 314 571 q 277 568 282 571 l 261 560 l 253 570 l 413 705 q 456 655 442 705 q 467 583 467 622 q 420 367 467 477 q 132 10 332 158 q 21 -45 58 -45 q -60 5 -32 -45 q -82 102 -82 44 q 35 432 -82 258 q 278 692 132 577 m 403 842 l 498 942 q 599 918 547 921 q 624 917 607 917 q 567 848 607 875 q 482 821 528 821 q 403 842 442 821 m 164 842 l 258 942 q 384 917 316 917 q 328 848 367 874 q 243 821 289 821 q 164 842 203 821 z "},"÷":{"ha":1157,"x_min":172,"x_max":985,"o":"m 579 249 q 639 224 614 249 q 664 164 664 199 q 639 104 664 130 q 579 79 614 79 q 519 104 545 79 q 494 164 494 130 q 519 224 494 199 q 579 249 545 249 m 172 461 l 985 461 l 985 366 l 172 366 l 172 461 m 579 750 q 638 724 612 750 q 664 664 664 699 q 639 604 664 629 q 579 579 614 579 q 519 604 545 579 q 494 664 494 629 q 519 725 494 699 q 579 750 544 750 z "},"ù":{"ha":611,"x_min":-79,"x_max":582,"o":"m 460 640 l 521 653 l 578 667 l 582 663 q 422 288 479 431 q 367 114 367 147 q 406 73 367 73 q 428 75 420 73 l 457 82 l 457 61 q 261 -47 309 -47 q 232 -33 245 -47 q 220 4 223 -21 q 302 277 220 96 l 294 278 q -35 -43 62 -43 q -68 -31 -56 -43 q -79 1 -79 -22 q -77 25 -79 14 q -55 102 -74 52 q -37 147 -50 115 l -12 210 q 92 518 92 466 q 61 546 92 546 l 49 545 l 44 560 q 158 645 111 616 q 228 674 205 674 q 250 665 242 674 q 257 640 257 656 q 242 574 257 617 q 225 524 236 555 q 200 460 224 519 l 174 393 q 85 147 85 170 l 89 131 q 103 125 93 125 q 311 349 176 125 q 460 640 411 515 m 231 999 l 379 971 l 509 783 l 407 803 l 231 999 z "},"ú":{"ha":611,"x_min":-79,"x_max":582,"o":"m 460 640 l 521 653 l 578 667 l 582 663 q 422 288 479 431 q 367 114 367 147 q 406 73 367 73 q 428 75 420 73 l 457 82 l 457 61 q 261 -47 309 -47 q 232 -33 245 -47 q 220 4 223 -21 q 302 277 220 96 l 294 278 q -35 -43 62 -43 q -68 -31 -56 -43 q -79 1 -79 -22 q -77 25 -79 14 q -55 102 -74 52 q -37 147 -50 115 l -12 210 q 92 518 92 466 q 61 546 92 546 l 49 545 l 44 560 q 158 645 111 616 q 228 674 205 674 q 250 665 242 674 q 257 640 257 656 q 242 574 257 617 q 225 524 236 555 q 200 460 224 519 l 174 393 q 85 147 85 170 l 89 131 q 103 125 93 125 q 311 349 176 125 q 460 640 411 515 m 290 783 l 431 964 l 581 982 l 379 795 l 290 783 z "},"û":{"ha":611,"x_min":-79,"x_max":582,"o":"m 460 640 l 521 653 l 578 667 l 582 663 q 422 288 479 431 q 367 114 367 147 q 406 73 367 73 q 428 75 420 73 l 457 82 l 457 61 q 261 -47 309 -47 q 232 -33 245 -47 q 220 4 223 -21 q 302 277 220 96 l 294 278 q -35 -43 62 -43 q -68 -31 -56 -43 q -79 1 -79 -22 q -77 25 -79 14 q -55 102 -74 52 q -37 147 -50 115 l -12 210 q 92 518 92 466 q 61 546 92 546 l 49 545 l 44 560 q 158 645 111 616 q 228 674 205 674 q 250 665 242 674 q 257 640 257 656 q 242 574 257 617 q 225 524 236 555 q 200 460 224 519 l 174 393 q 85 147 85 170 l 89 131 q 103 125 93 125 q 311 349 176 125 q 460 640 411 515 m 389 1021 l 477 1021 l 576 815 l 522 783 l 425 947 l 239 783 l 175 817 l 389 1021 z "},"ü":{"ha":611,"x_min":-79,"x_max":642,"o":"m 460 640 l 521 653 l 578 667 l 582 663 q 422 288 479 431 q 367 114 367 147 q 406 73 367 73 q 428 75 420 73 l 457 82 l 457 61 q 261 -47 309 -47 q 232 -33 245 -47 q 220 4 223 -21 q 302 277 220 96 l 294 278 q -35 -43 62 -43 q -68 -31 -56 -43 q -79 1 -79 -22 q -77 25 -79 14 q -55 102 -74 52 q -37 147 -50 115 l -12 210 q 92 518 92 466 q 61 546 92 546 l 49 545 l 44 560 q 158 645 111 616 q 228 674 205 674 q 250 665 242 674 q 257 640 257 656 q 241 574 257 621 q 225 524 235 555 q 200 460 223 517 l 174 393 q 85 147 85 170 l 89 131 q 103 125 93 125 q 311 349 176 125 q 460 640 411 515 m 421 842 l 517 942 q 571 925 542 930 q 642 917 616 917 q 583 848 627 877 q 500 821 544 821 q 485 823 493 821 q 461 827 473 824 q 421 842 445 829 m 182 842 l 277 942 q 342 924 292 935 q 401 917 372 917 q 346 848 386 876 q 261 821 305 821 q 246 823 254 821 q 222 827 233 823 q 182 842 205 829 z "},"ý":{"ha":582,"x_min":-119,"x_max":603,"o":"m 39 562 q 164 661 111 625 q 225 690 206 690 q 260 642 260 690 q 217 503 260 612 l 197 453 q 87 143 87 173 l 92 127 q 107 121 96 121 q 307 345 179 121 q 449 635 398 503 l 585 694 l 589 693 l 592 689 q 566 629 587 672 q 388 204 455 402 l 370 150 q 222 -164 293 -77 q 81 -280 169 -230 q -56 -330 -6 -330 q -119 -256 -119 -330 q -87 -170 -119 -216 q 7 -74 -57 -125 l 16 -78 l 0 -121 l -4 -159 q 50 -248 -4 -221 q 165 -87 109 -205 q 224 54 196 -24 q 290 256 249 125 l 283 257 q 139 92 224 178 q -31 -31 20 -31 q -66 24 -66 -31 q -56 82 -66 44 q -17 193 -43 130 q 39 332 4 244 q 74 428 60 388 q 98 526 98 497 q 73 551 98 551 l 58 550 l 45 546 l 39 562 m 313 783 l 453 964 l 603 982 l 401 795 l 313 783 z "},"þ":{"ha":560,"x_min":-212,"x_max":543,"o":"m 133 277 l 133 271 q 157 150 133 203 q 203 100 180 100 q 228 113 213 100 q 242 128 233 118 q 257 149 247 134 q 353 349 309 225 q 395 532 395 468 q 387 566 395 553 q 364 576 378 576 q 249 490 319 576 q 133 277 177 402 m -212 -303 l 4 262 q 245 935 230 854 l 321 960 l 399 994 q 338 829 383 945 l 210 503 l 214 500 q 378 637 303 589 q 497 690 460 690 q 531 675 518 690 q 543 631 543 659 q 306 135 543 401 q 212 43 272 97 q 110 -28 133 -28 q 90 60 88 -28 l 92 115 l 96 174 l 89 178 l 21 -9 q -54 -220 -3 -79 q -88 -235 -65 -224 q -124 -254 -100 -241 q -212 -303 -168 -277 z "},"ÿ":{"ha":582,"x_min":-119,"x_max":664,"o":"m 39 562 q 164 661 111 625 q 225 690 206 690 q 260 642 260 690 q 217 503 260 612 l 197 453 q 87 143 87 173 l 92 127 q 107 121 96 121 q 307 345 179 121 q 449 635 398 503 l 585 694 l 589 693 l 592 689 q 566 629 587 672 q 388 204 455 402 l 370 150 q 222 -164 293 -77 q 81 -280 169 -230 q -56 -330 -6 -330 q -119 -256 -119 -330 q -87 -170 -119 -216 q 7 -74 -57 -125 l 16 -78 l 0 -121 l -4 -159 q 50 -248 -4 -221 q 165 -87 109 -205 q 224 54 196 -24 q 290 256 249 125 l 283 257 q 139 92 224 178 q -31 -31 20 -31 q -66 24 -66 -31 q -56 82 -66 44 q -17 193 -43 130 q 39 332 4 244 q 74 428 60 388 q 98 526 98 497 q 73 551 98 551 l 58 550 l 45 546 l 39 562 m 444 842 l 539 942 q 629 918 576 926 q 664 917 639 917 q 607 848 648 876 q 522 821 567 821 q 507 822 515 821 q 484 827 498 823 q 444 842 467 829 m 204 842 l 299 942 q 399 918 346 921 q 424 917 407 917 q 368 848 407 874 q 283 821 329 821 q 204 842 243 821 z "},"∙":{"ha":379,"x_min":82,"x_max":243,"o":"m 82 397 q 106 454 82 431 q 163 478 130 478 q 220 454 196 478 q 243 397 243 431 q 219 341 243 366 q 163 317 195 317 q 106 341 131 317 q 82 397 82 366 z "}}}
